<?xml version="1.0" encoding="utf-8"?>
<!-- Generator: Adobe Illustrator 27.5.0, SVG Export Plug-In . SVG Version: 6.00 Build 0)  -->
<svg version="1.1" xmlns="http://www.w3.org/2000/svg" xmlns:xlink="http://www.w3.org/1999/xlink" x="0px" y="0px"
	 viewBox="0 0 500 500" style="enable-background:new 0 0 500 500;" xml:space="preserve">
<g id="Background_Simple">
	<g>
		<path style="fill:#92E3A9;" d="M325.833,44.062c0,0-79.342-31.171-155.222,12.821C94.731,100.874,58.279,191.385,26.834,263.824
			c-31.445,72.44-10.206,147.607,49.578,183.277c59.784,35.67,98.467-13.379,180.987-13.52
			c82.521-0.141,105.06,12.726,172.29-33.764c67.23-46.49,76.547-160.451,20.216-246.535
			C393.574,67.198,325.833,44.062,325.833,44.062z"/>
		<path style="opacity:0.7;fill:#FFFFFF;" d="M325.833,44.062c0,0-79.342-31.171-155.222,12.821
			C94.731,100.874,58.279,191.385,26.834,263.824c-31.445,72.44-10.206,147.607,49.578,183.277
			c59.784,35.67,98.467-13.379,180.987-13.52c82.521-0.141,105.06,12.726,172.29-33.764c67.23-46.49,76.547-160.451,20.216-246.535
			C393.574,67.198,325.833,44.062,325.833,44.062z"/>
	</g>
</g>
<g id="Plant_2">
	<g>
		<g>
			<g>
				<g>
					<path style="fill:#92E3A9;" d="M416.441,282.834c0,0,0-3.877,5.428-9.305c5.428-5.428,8.917-8.529,8.917-8.529
						s2.714,8.917-2.326,14.345c-5.04,5.428-12.019,10.468-12.019,10.468V282.834z"/>
					<path style="fill:#92E3A9;" d="M424.319,307.047c0,0,0-3.877,5.428-9.305c5.428-5.428,8.917-8.529,8.917-8.529
						s2.714,8.917-2.326,14.345c-5.04,5.428-12.019,10.468-12.019,10.468V307.047z"/>
					<path style="fill:#92E3A9;" d="M416.783,289.437c0,0-0.41-3.855-6.38-8.679c-5.971-4.824-9.768-7.539-9.768-7.539
						s-1.756,9.154,3.829,14.018c5.585,4.865,13.057,9.139,13.057,9.139L416.783,289.437z"/>
					<path style="fill:#92E3A9;" d="M426.299,318.032c0,0-0.812-3.791-7.257-7.961c-6.444-4.17-10.506-6.472-10.506-6.472
						s-0.785,9.288,5.28,13.539c6.065,4.251,13.945,7.717,13.945,7.717L426.299,318.032z"/>
					<path style="fill:#92E3A9;" d="M424.51,349.209c0,0,0-3.877-5.428-9.305c-5.428-5.428-8.917-8.529-8.917-8.529
						s-2.714,8.917,2.326,14.345c5.04,5.428,12.018,10.468,12.018,10.468V349.209z"/>
					<path style="fill:#92E3A9;" d="M424.6,356.818c0,0-0.551-3.838,4.05-9.982c4.601-6.144,7.614-9.71,7.614-9.71
						s3.953,8.441-0.264,14.53c-4.217,6.089-10.409,12.07-10.409,12.07L424.6,356.818z"/>
					<path style="fill:#92E3A9;" d="M429.953,379.371c0,0,0-3.877-5.428-9.305c-5.428-5.428-8.917-8.529-8.917-8.529
						s-2.714,8.917,2.326,14.345c5.04,5.428,12.019,10.468,12.019,10.468V379.371z"/>
					<path style="fill:#92E3A9;" d="M426.328,399.818c0,0,0.982-3.751-2.894-10.376c-3.876-6.626-6.466-10.51-6.466-10.51
						s-4.884,7.939-1.383,14.466c3.501,6.527,8.976,13.171,8.976,13.171L426.328,399.818z"/>
				</g>
				<path style="fill:none;stroke:#263238;stroke-linecap:round;stroke-linejoin:round;stroke-miterlimit:10;" d="M415.95,281.841
					c0.318,4.144,0.789,8.431,1.487,12.038c2.145,11.086,7.509,18.237,9.655,28.25c2.146,10.013-4.014,22.912-2.365,35.773
					c1.65,12.861,6.656,20.013,5.225,28.595c-1.43,8.582-8.94,31.826-8.94,31.826"/>
				
					<line style="fill:none;stroke:#263238;stroke-linecap:round;stroke-linejoin:round;stroke-miterlimit:10;" x1="416.836" y1="292.014" x2="410.987" y2="287.525"/>
				
					<line style="fill:none;stroke:#263238;stroke-linecap:round;stroke-linejoin:round;stroke-miterlimit:10;" x1="416.564" y1="286.845" x2="419.013" y2="282.492"/>
				<path style="fill:none;stroke:#263238;stroke-linecap:round;stroke-linejoin:round;stroke-miterlimit:10;" d="M426.766,321.669
					c0,0-4.897-3.673-9.93-7.346"/>
				<path style="fill:none;stroke:#263238;stroke-linecap:round;stroke-linejoin:round;stroke-miterlimit:10;" d="M424.319,314.025
					c0,0,4.08-8,8.705-13.305"/>
				<path style="fill:none;stroke:#263238;stroke-linecap:round;stroke-linejoin:round;stroke-miterlimit:10;" d="M424.318,354.724
					c0,0-3.809-7.482-10.474-14.011"/>
				<path style="fill:none;stroke:#263238;stroke-linecap:round;stroke-linejoin:round;stroke-miterlimit:10;" d="M425.27,360.165
					c0,0,2.449-5.849,5.305-10.066c2.857-4.217,3.265-4.761,3.265-4.761"/>
				<path style="fill:none;stroke:#263238;stroke-linecap:round;stroke-linejoin:round;stroke-miterlimit:10;" d="M429.952,386.496
					c0,0-1.961-4.974-4.41-8.919c-2.448-3.945-5.713-7.482-5.713-7.482"/>
				<path style="fill:none;stroke:#263238;stroke-linecap:round;stroke-linejoin:round;stroke-miterlimit:10;" d="M424.561,406.569
					c0,0,0.574-4.643-1.467-8.587c-2.04-3.945-4.353-9.114-5.305-11.154"/>
			</g>
			<g>
				<g>
					<path style="fill:#92E3A9;" d="M451.984,334.628c0,0,0.421-2.431-2.393-6.424c-2.814-3.993-4.666-6.317-4.666-6.317
						s-2.67,5.297-0.099,9.248c2.571,3.951,6.4,7.869,6.4,7.869L451.984,334.628z"/>
					<path style="fill:#92E3A9;" d="M444.416,348.956c0,0,0.421-2.431-2.393-6.424c-2.814-3.993-4.666-6.317-4.666-6.317
						s-2.67,5.297-0.098,9.248c2.572,3.951,6.4,7.869,6.4,7.869L444.416,348.956z"/>
					<path style="fill:#92E3A9;" d="M451.054,338.732c0,0,0.675-2.373,4.943-4.75c4.268-2.377,6.944-3.667,6.944-3.667
						s0.108,5.931-3.923,8.375c-4.031,2.444-9.18,4.314-9.18,4.314L451.054,338.732z"/>
					<path style="fill:#92E3A9;" d="M441.982,355.63c0,0,0.921-2.289,5.415-4.204c4.494-1.915,7.291-2.918,7.291-2.918
						s-0.516,5.909-4.781,7.917c-4.265,2.007-9.583,3.325-9.583,3.325L441.982,355.63z"/>
					<path style="fill:#92E3A9;" d="M439.719,375.375c0,0,0.421-2.431,4.414-5.246c3.993-2.814,6.518-4.38,6.518-4.38
						s0.734,5.886-3.016,8.743c-3.75,2.856-8.673,5.259-8.673,5.259L439.719,375.375z"/>
					<path style="fill:#92E3A9;" d="M438.836,380.136c0,0,0.762-2.347-1.457-6.699c-2.218-4.352-3.721-6.915-3.721-6.915
						s-3.396,4.864-1.412,9.14c1.984,4.276,5.217,8.699,5.217,8.699L438.836,380.136z"/>
					<path style="fill:#92E3A9;" d="M432.024,399.747c0,0-0.281-2.451-4.107-5.489c-3.826-3.038-6.257-4.746-6.257-4.746
						s-1.069,5.835,2.512,8.901c3.581,3.066,8.359,5.746,8.359,5.746L432.024,399.747z"/>
					<path style="fill:#92E3A9;" d="M433.032,393.698c0,0,0.421-2.431,4.414-5.246c3.993-2.814,6.518-4.381,6.518-4.381
						s0.734,5.886-3.016,8.743c-3.75,2.856-8.673,5.259-8.673,5.259L433.032,393.698z"/>
					<path style="fill:#92E3A9;" d="M433.085,406.913c0,0-0.208-2.459,2.941-6.192c3.15-3.734,5.196-5.888,5.196-5.888
						s2.201,5.508-0.703,9.222c-2.904,3.713-7.058,7.285-7.058,7.285L433.085,406.913z"/>
				</g>
				<path style="fill:none;stroke:#263238;stroke-linecap:round;stroke-linejoin:round;stroke-miterlimit:10;" d="M452.401,334.059
					c-0.649,2.564-1.41,5.202-2.239,7.387c-2.549,6.719-6.689,10.621-9.121,16.667c-2.432,6.046,0.03,14.804-2.401,22.689
					c-2.43,7.885-6.346,11.827-6.381,17.364c-0.034,5.537,2.151,20.928,2.151,20.928"/>
				
					<line style="fill:none;stroke:#263238;stroke-linecap:round;stroke-linejoin:round;stroke-miterlimit:10;" x1="450.74" y1="340.342" x2="454.895" y2="338.162"/>
				
					<line style="fill:none;stroke:#263238;stroke-linecap:round;stroke-linejoin:round;stroke-miterlimit:10;" x1="451.472" y1="337.13" x2="450.409" y2="334.134"/>
				<path style="fill:none;stroke:#263238;stroke-linecap:round;stroke-linejoin:round;stroke-miterlimit:10;" d="M441.294,357.86
					c0,0,3.47-1.772,7.024-3.529"/>
				<path style="fill:none;stroke:#263238;stroke-linecap:round;stroke-linejoin:round;stroke-miterlimit:10;" d="M443.659,353.332
					c0,0-1.69-5.46-4.014-9.288"/>
				<path style="fill:none;stroke:#263238;stroke-linecap:round;stroke-linejoin:round;stroke-miterlimit:10;" d="M439.241,378.854
					c0,0,3.201-4.278,8.09-7.649"/>
				<path style="fill:none;stroke:#263238;stroke-linecap:round;stroke-linejoin:round;stroke-miterlimit:10;" d="M438.053,382.163
					c0,0-0.9-3.934-2.234-6.888c-1.334-2.954-1.53-3.34-1.53-3.34"/>
				<path style="fill:none;stroke:#263238;stroke-linecap:round;stroke-linejoin:round;stroke-miterlimit:10;" d="M432.447,402.366
					c0,0-2.754-3.376-4.468-4.639c-1.714-1.263-2.902-2.523-2.902-2.523"/>
				<path style="fill:none;stroke:#263238;stroke-linecap:round;stroke-linejoin:round;stroke-miterlimit:10;" d="M432.258,398.166
					c0,0,1.77-2.906,3.734-5.114c1.964-2.208,4.395-4.072,4.395-4.072"/>
				<path style="fill:none;stroke:#263238;stroke-linecap:round;stroke-linejoin:round;stroke-miterlimit:10;" d="M433.46,411.339
					c0,0,0.144-2.974,1.852-5.226c1.708-2.252,3.719-5.243,4.538-6.419"/>
			</g>
		</g>
		<g>
			<path style="fill:#263238;stroke:#263238;stroke-linecap:round;stroke-linejoin:round;stroke-miterlimit:10;" d="M417.494,456
				h22.654c0.985,0,1.784-0.799,1.784-1.784l5.619-37.517h-37.46l5.619,37.517C415.71,455.201,416.509,456,417.494,456z"/>
		</g>
	</g>
</g>
<g id="Plant_1">
	<g>
		<g>
			<g>
				<g>
					<path style="fill:#92E3A9;" d="M73.872,282.834c0,0,0-3.877-5.428-9.305c-5.428-5.428-8.917-8.529-8.917-8.529
						s-2.714,8.917,2.326,14.345c5.04,5.428,12.019,10.468,12.019,10.468V282.834z"/>
					<path style="fill:#92E3A9;" d="M65.994,307.047c0,0,0-3.877-5.428-9.305c-5.428-5.428-8.917-8.529-8.917-8.529
						s-2.714,8.917,2.326,14.345c5.04,5.428,12.019,10.468,12.019,10.468V307.047z"/>
					<path style="fill:#92E3A9;" d="M73.53,289.437c0,0,0.41-3.855,6.38-8.679c5.971-4.824,9.768-7.539,9.768-7.539
						s1.756,9.154-3.829,14.018c-5.585,4.865-13.057,9.139-13.057,9.139L73.53,289.437z"/>
					<path style="fill:#92E3A9;" d="M64.014,318.032c0,0,0.812-3.791,7.257-7.961c6.444-4.17,10.506-6.472,10.506-6.472
						s0.785,9.288-5.28,13.539c-6.065,4.251-13.945,7.717-13.945,7.717L64.014,318.032z"/>
					<path style="fill:#92E3A9;" d="M65.803,349.209c0,0,0-3.877,5.428-9.305c5.428-5.428,8.917-8.529,8.917-8.529
						s2.714,8.917-2.326,14.345c-5.04,5.428-12.019,10.468-12.019,10.468V349.209z"/>
					<path style="fill:#92E3A9;" d="M65.713,356.818c0,0,0.551-3.838-4.05-9.982c-4.601-6.144-7.614-9.71-7.614-9.71
						s-3.953,8.441,0.264,14.53c4.217,6.089,10.409,12.07,10.409,12.07L65.713,356.818z"/>
					<path style="fill:#92E3A9;" d="M60.361,379.371c0,0,0-3.877,5.428-9.305c5.428-5.428,8.917-8.529,8.917-8.529
						s2.714,8.917-2.326,14.345c-5.04,5.428-12.019,10.468-12.019,10.468V379.371z"/>
					<path style="fill:#92E3A9;" d="M63.985,399.818c0,0-0.982-3.751,2.894-10.376c3.876-6.626,6.466-10.51,6.466-10.51
						s4.884,7.939,1.383,14.466c-3.501,6.527-8.976,13.171-8.976,13.171L63.985,399.818z"/>
				</g>
				<path style="fill:none;stroke:#263238;stroke-linecap:round;stroke-linejoin:round;stroke-miterlimit:10;" d="M74.364,281.841
					c-0.318,4.144-0.789,8.431-1.487,12.038c-2.146,11.086-7.509,18.237-9.655,28.25c-2.146,10.013,4.014,22.912,2.365,35.773
					c-1.65,12.861-6.656,20.013-5.225,28.595c1.43,8.582,8.94,31.826,8.94,31.826"/>
				
					<line style="fill:none;stroke:#263238;stroke-linecap:round;stroke-linejoin:round;stroke-miterlimit:10;" x1="73.477" y1="292.014" x2="79.326" y2="287.525"/>
				
					<line style="fill:none;stroke:#263238;stroke-linecap:round;stroke-linejoin:round;stroke-miterlimit:10;" x1="73.749" y1="286.845" x2="71.3" y2="282.492"/>
				<path style="fill:none;stroke:#263238;stroke-linecap:round;stroke-linejoin:round;stroke-miterlimit:10;" d="M63.547,321.669
					c0,0,4.897-3.673,9.93-7.346"/>
				<path style="fill:none;stroke:#263238;stroke-linecap:round;stroke-linejoin:round;stroke-miterlimit:10;" d="M65.994,314.025
					c0,0-4.08-8-8.705-13.305"/>
				<path style="fill:none;stroke:#263238;stroke-linecap:round;stroke-linejoin:round;stroke-miterlimit:10;" d="M65.995,354.724
					c0,0,3.809-7.482,10.474-14.011"/>
				<path style="fill:none;stroke:#263238;stroke-linecap:round;stroke-linejoin:round;stroke-miterlimit:10;" d="M65.043,360.165
					c0,0-2.449-5.849-5.305-10.066c-2.857-4.217-3.265-4.761-3.265-4.761"/>
				<path style="fill:none;stroke:#263238;stroke-linecap:round;stroke-linejoin:round;stroke-miterlimit:10;" d="M60.361,386.496
					c0,0,1.961-4.974,4.41-8.919c2.448-3.945,5.713-7.482,5.713-7.482"/>
				<path style="fill:none;stroke:#263238;stroke-linecap:round;stroke-linejoin:round;stroke-miterlimit:10;" d="M65.753,406.569
					c0,0-0.574-4.643,1.467-8.587c2.041-3.945,4.353-9.114,5.305-11.154"/>
			</g>
			<g>
				<g>
					<path style="fill:#92E3A9;" d="M38.329,334.628c0,0-0.421-2.431,2.394-6.424c2.814-3.993,4.666-6.317,4.666-6.317
						s2.67,5.297,0.099,9.248c-2.571,3.951-6.4,7.869-6.4,7.869L38.329,334.628z"/>
					<path style="fill:#92E3A9;" d="M45.897,348.956c0,0-0.421-2.431,2.394-6.424c2.814-3.993,4.666-6.317,4.666-6.317
						s2.67,5.297,0.098,9.248c-2.572,3.951-6.4,7.869-6.4,7.869L45.897,348.956z"/>
					<path style="fill:#92E3A9;" d="M39.26,338.732c0,0-0.675-2.373-4.943-4.75c-4.268-2.377-6.944-3.667-6.944-3.667
						s-0.108,5.931,3.923,8.375c4.031,2.444,9.18,4.314,9.18,4.314L39.26,338.732z"/>
					<path style="fill:#92E3A9;" d="M48.331,355.63c0,0-0.921-2.289-5.415-4.204c-4.494-1.915-7.291-2.918-7.291-2.918
						s0.516,5.909,4.781,7.917c4.265,2.007,9.583,3.325,9.583,3.325L48.331,355.63z"/>
					<path style="fill:#92E3A9;" d="M50.594,375.375c0,0-0.421-2.431-4.414-5.246c-3.993-2.814-6.518-4.38-6.518-4.38
						s-0.734,5.886,3.016,8.743c3.75,2.856,8.673,5.259,8.673,5.259L50.594,375.375z"/>
					<path style="fill:#92E3A9;" d="M51.477,380.136c0,0-0.762-2.347,1.457-6.699c2.218-4.352,3.721-6.915,3.721-6.915
						s3.396,4.864,1.412,9.14c-1.984,4.276-5.217,8.699-5.217,8.699L51.477,380.136z"/>
					<path style="fill:#92E3A9;" d="M58.29,399.747c0,0,0.281-2.451,4.107-5.489c3.826-3.038,6.257-4.746,6.257-4.746
						s1.069,5.835-2.512,8.901c-3.581,3.066-8.359,5.746-8.359,5.746L58.29,399.747z"/>
					<path style="fill:#92E3A9;" d="M57.281,393.698c0,0-0.421-2.431-4.414-5.246c-3.993-2.814-6.518-4.381-6.518-4.381
						s-0.734,5.886,3.016,8.743c3.75,2.856,8.673,5.259,8.673,5.259L57.281,393.698z"/>
					<path style="fill:#92E3A9;" d="M57.228,406.913c0,0,0.208-2.459-2.941-6.192c-3.15-3.734-5.196-5.888-5.196-5.888
						s-2.201,5.508,0.703,9.222c2.904,3.713,7.058,7.285,7.058,7.285L57.228,406.913z"/>
				</g>
				<path style="fill:none;stroke:#263238;stroke-linecap:round;stroke-linejoin:round;stroke-miterlimit:10;" d="M37.913,334.059
					c0.649,2.564,1.41,5.202,2.239,7.387c2.549,6.719,6.689,10.621,9.121,16.667c2.432,6.046-0.03,14.804,2.401,22.689
					c2.43,7.885,6.346,11.827,6.381,17.364c0.035,5.537-2.151,20.928-2.151,20.928"/>
				
					<line style="fill:none;stroke:#263238;stroke-linecap:round;stroke-linejoin:round;stroke-miterlimit:10;" x1="39.573" y1="340.342" x2="35.418" y2="338.162"/>
				
					<line style="fill:none;stroke:#263238;stroke-linecap:round;stroke-linejoin:round;stroke-miterlimit:10;" x1="38.841" y1="337.13" x2="39.904" y2="334.134"/>
				<path style="fill:none;stroke:#263238;stroke-linecap:round;stroke-linejoin:round;stroke-miterlimit:10;" d="M49.019,357.86
					c0,0-3.47-1.772-7.024-3.529"/>
				<path style="fill:none;stroke:#263238;stroke-linecap:round;stroke-linejoin:round;stroke-miterlimit:10;" d="M46.655,353.332
					c0,0,1.69-5.46,4.014-9.288"/>
				<path style="fill:none;stroke:#263238;stroke-linecap:round;stroke-linejoin:round;stroke-miterlimit:10;" d="M51.072,378.854
					c0,0-3.201-4.278-8.09-7.649"/>
				<path style="fill:none;stroke:#263238;stroke-linecap:round;stroke-linejoin:round;stroke-miterlimit:10;" d="M52.26,382.163
					c0,0,0.9-3.934,2.234-6.888c1.334-2.954,1.53-3.34,1.53-3.34"/>
				<path style="fill:none;stroke:#263238;stroke-linecap:round;stroke-linejoin:round;stroke-miterlimit:10;" d="M57.866,402.366
					c0,0,2.754-3.376,4.468-4.639c1.714-1.263,2.902-2.523,2.902-2.523"/>
				<path style="fill:none;stroke:#263238;stroke-linecap:round;stroke-linejoin:round;stroke-miterlimit:10;" d="M58.055,398.166
					c0,0-1.77-2.906-3.734-5.114c-1.964-2.208-4.395-4.072-4.395-4.072"/>
				<path style="fill:none;stroke:#263238;stroke-linecap:round;stroke-linejoin:round;stroke-miterlimit:10;" d="M56.853,411.339
					c0,0-0.144-2.974-1.852-5.226c-1.708-2.252-3.719-5.243-4.538-6.419"/>
			</g>
		</g>
		<g>
			<path style="fill:#263238;stroke:#263238;stroke-linecap:round;stroke-linejoin:round;stroke-miterlimit:10;" d="M72.819,456
				H50.165c-0.985,0-1.784-0.799-1.784-1.784l-5.619-37.517h37.46l-5.619,37.517C74.603,455.201,73.804,456,72.819,456z"/>
		</g>
	</g>
</g>
<g id="Window_3">
	<g style="opacity:0.3;">
		<path style="fill:none;stroke:#000000;stroke-linecap:round;stroke-linejoin:round;stroke-miterlimit:10;" d="M335.066,358
			h137.488V112.453c0-38.91-31.543-70.453-70.453-70.453h0c-37.023,0-67.035,30.013-67.035,67.035V358z"/>
		<path style="fill:none;stroke:#000000;stroke-linecap:round;stroke-linejoin:round;stroke-miterlimit:10;" d="M457.031,357.261
			V112.961c0-29.393-23.828-53.221-53.221-53.221h0c-29.393,0-53.221,23.828-53.221,53.221v244.299"/>
		
			<line style="fill:none;stroke:#000000;stroke-linecap:round;stroke-linejoin:round;stroke-miterlimit:10;" x1="403.81" y1="42" x2="403.81" y2="357.63"/>
		
			<line style="fill:none;stroke:#000000;stroke-linecap:round;stroke-linejoin:round;stroke-miterlimit:10;" x1="471.814" y1="102.798" x2="335.99" y2="102.798"/>
		
			<line style="fill:none;stroke:#000000;stroke-linecap:round;stroke-linejoin:round;stroke-miterlimit:10;" x1="471.814" y1="145.67" x2="335.99" y2="145.67"/>
		
			<line style="fill:none;stroke:#000000;stroke-linecap:round;stroke-linejoin:round;stroke-miterlimit:10;" x1="471.814" y1="188.543" x2="335.99" y2="188.543"/>
		
			<line style="fill:none;stroke:#000000;stroke-linecap:round;stroke-linejoin:round;stroke-miterlimit:10;" x1="471.814" y1="231.415" x2="335.99" y2="231.415"/>
		
			<line style="fill:none;stroke:#000000;stroke-linecap:round;stroke-linejoin:round;stroke-miterlimit:10;" x1="471.814" y1="274.288" x2="335.99" y2="274.288"/>
		
			<line style="fill:none;stroke:#000000;stroke-linecap:round;stroke-linejoin:round;stroke-miterlimit:10;" x1="471.814" y1="317.16" x2="335.99" y2="317.16"/>
		
			<line style="fill:none;stroke:#000000;stroke-linecap:round;stroke-linejoin:round;stroke-miterlimit:10;" x1="453.654" y1="63.454" x2="441.336" y2="74.67"/>
		
			<line style="fill:none;stroke:#000000;stroke-linecap:round;stroke-linejoin:round;stroke-miterlimit:10;" x1="354.482" y1="63.454" x2="366.8" y2="74.67"/>
	</g>
</g>
<g id="Mosaic">
	<g>
		<g>
			<path style="fill:none;stroke:#999999;stroke-linecap:round;stroke-linejoin:round;stroke-miterlimit:10;" d="M254.82,91.096
				h-13.107c-1.338,0-2.581-0.686-3.298-1.816c-2.87-4.518-9.909-16.253-8.91-21.166c1.343-6.606,19.619-18.498,19.619-18.498
				s16.738,11.71,17.937,17.937c0.969,5.03-6.07,17.079-8.924,21.698C257.427,90.4,256.17,91.096,254.82,91.096z"/>
			<path style="fill:none;stroke:#999999;stroke-linecap:round;stroke-linejoin:round;stroke-miterlimit:10;" d="M250.338,88.944
				l-11.351,6.554c-1.159,0.669-2.578,0.696-3.765,0.076c-4.744-2.478-16.708-9.121-18.299-13.875
				c-2.14-6.392,7.742-25.829,7.742-25.829s20.35,1.772,24.503,6.565c3.354,3.872,3.283,17.826,3.12,23.253
				C252.248,87.038,251.508,88.269,250.338,88.944z"/>
			<path style="fill:none;stroke:#999999;stroke-linecap:round;stroke-linejoin:round;stroke-miterlimit:10;" d="M245.381,89.321
				l-6.554,11.351c-0.669,1.159-1.885,1.892-3.222,1.948c-5.348,0.226-19.029,0.455-22.785-2.867
				c-5.049-4.466-6.21-26.239-6.21-26.239s18.51-8.641,24.503-6.566c4.841,1.676,11.756,13.796,14.329,18.577
				C246.081,86.715,246.056,88.152,245.381,89.321z"/>
			<path style="fill:none;stroke:#999999;stroke-linecap:round;stroke-linejoin:round;stroke-miterlimit:10;" d="M241.276,92.126
				v13.107c0,1.338-0.686,2.581-1.816,3.298c-4.518,2.87-16.253,9.909-21.166,8.91c-6.606-1.343-18.498-19.619-18.498-19.619
				s11.71-16.738,17.937-17.937c5.03-0.969,17.079,6.07,21.698,8.924C240.579,89.52,241.276,90.776,241.276,92.126z"/>
			<path style="fill:none;stroke:#999999;stroke-linecap:round;stroke-linejoin:round;stroke-miterlimit:10;" d="M239.123,96.608
				l6.554,11.351c0.669,1.159,0.696,2.578,0.076,3.765c-2.478,4.744-9.121,16.708-13.875,18.299
				c-6.392,2.14-25.829-7.742-25.829-7.742s1.772-20.35,6.566-24.503c3.872-3.354,17.826-3.283,23.253-3.12
				C237.217,94.699,238.449,95.439,239.123,96.608z"/>
			<path style="fill:none;stroke:#999999;stroke-linecap:round;stroke-linejoin:round;stroke-miterlimit:10;" d="M239.5,101.565
				l11.351,6.554c1.159,0.669,1.892,1.885,1.948,3.222c0.226,5.348,0.455,19.03-2.867,22.785c-4.466,5.049-26.239,6.21-26.239,6.21
				s-8.64-18.51-6.566-24.503c1.676-4.841,13.797-11.756,18.577-14.329C236.895,100.865,238.331,100.89,239.5,101.565z"/>
			<path style="fill:none;stroke:#999999;stroke-linecap:round;stroke-linejoin:round;stroke-miterlimit:10;" d="M242.305,105.67
				h13.107c1.338,0,2.581,0.686,3.298,1.816c2.87,4.518,9.909,16.253,8.91,21.166c-1.343,6.606-19.619,18.498-19.619,18.498
				s-16.738-11.71-17.937-17.937c-0.969-5.03,6.07-17.079,8.924-21.698C239.699,106.367,240.955,105.67,242.305,105.67z"/>
			<path style="fill:none;stroke:#999999;stroke-linecap:round;stroke-linejoin:round;stroke-miterlimit:10;" d="M246.787,107.823
				l11.351-6.554c1.159-0.669,2.578-0.696,3.765-0.076c4.744,2.478,16.708,9.121,18.299,13.875
				c2.14,6.392-7.742,25.829-7.742,25.829s-20.35-1.772-24.503-6.565c-3.354-3.872-3.283-17.826-3.12-23.253
				C244.878,109.729,245.618,108.498,246.787,107.823z"/>
			<path style="fill:none;stroke:#999999;stroke-linecap:round;stroke-linejoin:round;stroke-miterlimit:10;" d="M251.745,107.446
				l6.554-11.351c0.669-1.159,1.885-1.892,3.222-1.948c5.347-0.226,19.029-0.455,22.785,2.867c5.049,4.466,6.21,26.239,6.21,26.239
				s-18.51,8.641-24.503,6.565c-4.841-1.676-11.756-13.796-14.329-18.577C251.045,110.051,251.07,108.615,251.745,107.446z"/>
			<path style="fill:none;stroke:#999999;stroke-linecap:round;stroke-linejoin:round;stroke-miterlimit:10;" d="M255.85,104.641
				V91.533c0-1.338,0.686-2.581,1.816-3.298c4.518-2.87,16.253-9.909,21.166-8.91c6.606,1.343,18.498,19.619,18.498,19.619
				s-11.71,16.738-17.937,17.937c-5.03,0.969-17.079-6.07-21.698-8.924C256.546,107.247,255.85,105.991,255.85,104.641z"/>
			<path style="fill:none;stroke:#999999;stroke-linecap:round;stroke-linejoin:round;stroke-miterlimit:10;" d="M258.002,100.159
				l-6.554-11.351c-0.669-1.159-0.696-2.578-0.076-3.765c2.478-4.744,9.121-16.707,13.875-18.299
				c6.392-2.14,25.829,7.742,25.829,7.742s-1.772,20.35-6.565,24.503c-3.872,3.354-17.826,3.283-23.253,3.12
				C259.909,102.068,258.677,101.328,258.002,100.159z"/>
			<path style="fill:none;stroke:#999999;stroke-linecap:round;stroke-linejoin:round;stroke-miterlimit:10;" d="M257.625,95.201
				l-11.351-6.554c-1.159-0.669-1.892-1.885-1.948-3.222c-0.226-5.347-0.455-19.03,2.867-22.785
				c4.466-5.049,26.239-6.21,26.239-6.21s8.641,18.51,6.565,24.503c-1.676,4.841-13.796,11.756-18.577,14.329
				C260.231,95.901,258.795,95.876,257.625,95.201z"/>
		</g>
		
			<circle style="fill:none;stroke:#999999;stroke-linecap:round;stroke-linejoin:round;stroke-miterlimit:10;" cx="248.563" cy="98.383" r="61"/>
		
			<line style="fill:none;stroke:#999999;stroke-linecap:round;stroke-linejoin:round;stroke-miterlimit:10;" x1="249.123" y1="49.617" x2="249.123" y2="37.383"/>
		
			<line style="fill:none;stroke:#999999;stroke-linecap:round;stroke-linejoin:round;stroke-miterlimit:10;" x1="248.002" y1="147.15" x2="248.002" y2="159.383"/>
		
			<line style="fill:none;stroke:#999999;stroke-linecap:round;stroke-linejoin:round;stroke-miterlimit:10;" x1="297.33" y1="98.944" x2="309.563" y2="98.944"/>
		
			<line style="fill:none;stroke:#999999;stroke-linecap:round;stroke-linejoin:round;stroke-miterlimit:10;" x1="199.796" y1="97.823" x2="187.563" y2="97.823"/>
		
			<line style="fill:none;stroke:#999999;stroke-linecap:round;stroke-linejoin:round;stroke-miterlimit:10;" x1="218.315" y1="68.251" x2="205.906" y2="55.841"/>
		
			<line style="fill:none;stroke:#999999;stroke-linecap:round;stroke-linejoin:round;stroke-miterlimit:10;" x1="278.105" y1="128.793" x2="291.643" y2="142.33"/>
		
			<line style="fill:none;stroke:#999999;stroke-linecap:round;stroke-linejoin:round;stroke-miterlimit:10;" x1="278.481" y1="69.755" x2="292.019" y2="56.217"/>
		
			<line style="fill:none;stroke:#999999;stroke-linecap:round;stroke-linejoin:round;stroke-miterlimit:10;" x1="218.315" y1="128.041" x2="205.154" y2="141.202"/>
	</g>
</g>
<g id="Window_1">
	<g style="display:none;opacity:0.3;">
		<path style="display:inline;fill:none;stroke:#000000;stroke-linecap:round;stroke-linejoin:round;stroke-miterlimit:10;" d="
			M179.292,358H316.78V112.453c0-38.91-31.543-70.453-70.453-70.453h0c-37.022,0-67.035,30.013-67.035,67.035V358z"/>
		<path style="display:inline;fill:none;stroke:#000000;stroke-linecap:round;stroke-linejoin:round;stroke-miterlimit:10;" d="
			M301.258,357.261V112.961c0-29.393-23.828-53.221-53.221-53.221h0c-29.393,0-53.221,23.828-53.221,53.221v244.299"/>
		
			<line style="display:inline;fill:none;stroke:#000000;stroke-linecap:round;stroke-linejoin:round;stroke-miterlimit:10;" x1="248.036" y1="42" x2="248.036" y2="357.63"/>
		
			<line style="display:inline;fill:none;stroke:#000000;stroke-linecap:round;stroke-linejoin:round;stroke-miterlimit:10;" x1="316.041" y1="102.798" x2="180.216" y2="102.798"/>
		
			<line style="display:inline;fill:none;stroke:#000000;stroke-linecap:round;stroke-linejoin:round;stroke-miterlimit:10;" x1="316.041" y1="145.67" x2="180.216" y2="145.67"/>
		
			<line style="display:inline;fill:none;stroke:#000000;stroke-linecap:round;stroke-linejoin:round;stroke-miterlimit:10;" x1="316.041" y1="188.543" x2="180.216" y2="188.543"/>
		
			<line style="display:inline;fill:none;stroke:#000000;stroke-linecap:round;stroke-linejoin:round;stroke-miterlimit:10;" x1="316.041" y1="231.415" x2="180.216" y2="231.415"/>
		
			<line style="display:inline;fill:none;stroke:#000000;stroke-linecap:round;stroke-linejoin:round;stroke-miterlimit:10;" x1="316.041" y1="274.288" x2="180.216" y2="274.288"/>
		
			<line style="display:inline;fill:none;stroke:#000000;stroke-linecap:round;stroke-linejoin:round;stroke-miterlimit:10;" x1="316.041" y1="317.16" x2="180.216" y2="317.16"/>
		
			<line style="display:inline;fill:none;stroke:#000000;stroke-linecap:round;stroke-linejoin:round;stroke-miterlimit:10;" x1="297.88" y1="63.454" x2="285.563" y2="74.67"/>
		
			<line style="display:inline;fill:none;stroke:#000000;stroke-linecap:round;stroke-linejoin:round;stroke-miterlimit:10;" x1="198.709" y1="63.454" x2="211.026" y2="74.67"/>
	</g>
	<g style="opacity:0.3;">
		<path style="fill:none;stroke:#000000;stroke-linecap:round;stroke-linejoin:round;stroke-miterlimit:10;" d="M23.519,358h137.488
			V112.453c0-38.91-31.543-70.453-70.453-70.453h0c-37.022,0-67.035,30.013-67.035,67.035V358z"/>
		<path style="fill:none;stroke:#000000;stroke-linecap:round;stroke-linejoin:round;stroke-miterlimit:10;" d="M145.484,357.261
			V112.961c0-29.393-23.828-53.221-53.221-53.221h0c-29.393,0-53.221,23.828-53.221,53.221v244.299"/>
		
			<line style="fill:none;stroke:#000000;stroke-linecap:round;stroke-linejoin:round;stroke-miterlimit:10;" x1="92.263" y1="42" x2="92.263" y2="357.63"/>
		
			<line style="fill:none;stroke:#000000;stroke-linecap:round;stroke-linejoin:round;stroke-miterlimit:10;" x1="160.268" y1="102.798" x2="24.443" y2="102.798"/>
		
			<line style="fill:none;stroke:#000000;stroke-linecap:round;stroke-linejoin:round;stroke-miterlimit:10;" x1="160.268" y1="145.67" x2="24.443" y2="145.67"/>
		
			<line style="fill:none;stroke:#000000;stroke-linecap:round;stroke-linejoin:round;stroke-miterlimit:10;" x1="160.268" y1="188.543" x2="24.443" y2="188.543"/>
		
			<line style="fill:none;stroke:#000000;stroke-linecap:round;stroke-linejoin:round;stroke-miterlimit:10;" x1="160.268" y1="231.415" x2="24.443" y2="231.415"/>
		
			<line style="fill:none;stroke:#000000;stroke-linecap:round;stroke-linejoin:round;stroke-miterlimit:10;" x1="160.268" y1="274.288" x2="24.443" y2="274.288"/>
		
			<line style="fill:none;stroke:#000000;stroke-linecap:round;stroke-linejoin:round;stroke-miterlimit:10;" x1="160.268" y1="317.16" x2="24.443" y2="317.16"/>
		
			<line style="fill:none;stroke:#000000;stroke-linecap:round;stroke-linejoin:round;stroke-miterlimit:10;" x1="142.107" y1="63.454" x2="129.789" y2="74.67"/>
		
			<line style="fill:none;stroke:#000000;stroke-linecap:round;stroke-linejoin:round;stroke-miterlimit:10;" x1="42.936" y1="63.454" x2="55.253" y2="74.67"/>
	</g>
</g>
<g id="Character">
	<g>
		<path style="fill:#263238;stroke:#263238;stroke-linecap:round;stroke-linejoin:round;stroke-miterlimit:10;" d="M305.159,207.958
			c0,0,6.212,3.597,14.386,12.424c8.174,8.828,12.751,35.638,3.596,40.87c-9.155,5.231-14.713-4.904-14.713,2.943
			c0,7.847,8.828,12.424-0.981,20.598c-9.809,8.174-30.734,7.52-33.35-6.866c-2.616-14.386,9.155-23.214,11.117-32.696
			c1.962-9.482-0.654-28.118,1.308-35.311C288.484,202.727,294.37,202.4,305.159,207.958z"/>
		<g>
			<path style="fill:none;stroke:#263238;stroke-linecap:round;stroke-linejoin:round;stroke-miterlimit:10;" d="M157.743,119.518
				c0,0-2.481-2.05-3.817-2.05c-1.336,0-1.909,1.678-3.817,3.169c-1.909,1.491-4.772,2.237-3.054,2.982
				c1.718,0.746,4.008,0.373,5.535-0.932c1.527-1.305,1.527-0.559,2.672-0.373c1.145,0.186,1.145,0.186,1.145,0.186L157.743,119.518
				z"/>
			<path style="fill:none;stroke:#263238;stroke-linecap:round;stroke-linejoin:round;stroke-miterlimit:10;" d="M154.689,123.805
				c0,0-5.153-0.932-5.535,0.559c-0.382,1.491,0,2.61,0.954,3.355c0.954,0.746,2.672,0.373,2.672,0.373L154.689,123.805z"/>
			<path style="fill:none;stroke:#263238;stroke-linecap:round;stroke-linejoin:round;stroke-miterlimit:10;" d="M148.772,125.482
				c0,0-2.863,1.118-2.1,3.169c0.764,2.05,4.008,2.423,4.008,2.423l1.145-2.423C151.826,128.651,149.917,127.906,148.772,125.482z"
				/>
			<path style="fill:none;stroke:#263238;stroke-linecap:round;stroke-linejoin:round;stroke-miterlimit:10;" d="M146.864,129.397
				c0,0-0.764,1.305-0.382,2.423c0.382,1.118,2.672,2.05,2.672,2.05l1.527-2.796C150.681,131.074,147.054,130.142,146.864,129.397z"
				/>
			<path style="fill:none;stroke:#263238;stroke-linecap:round;stroke-linejoin:round;stroke-miterlimit:10;" d="M146.482,131.82
				c0,0-1.336,0.746-0.764,1.864c0.573,1.118,2.29,1.305,2.29,1.305l1.145-1.118C149.154,133.87,146.673,132.565,146.482,131.82z"/>
		</g>
		<g>
			<path style="fill:#FFFFFF;stroke:#263238;stroke-linecap:round;stroke-linejoin:round;stroke-miterlimit:10;" d="
				M282.272,204.035c0,0-12.751-9.155-17.983-12.098c-5.231-2.943-17.002-4.904-17.002-4.904l-29.753-21.906
				c0,0-17.656-13.078-26.484-17.983c-8.828-4.904-23.868-15.04-23.868-15.04l-8.501-12.098l-9.482,16.348l16.021,3.597
				c0,0,29.753,26.483,37.273,33.35c7.52,6.866,13.078,9.155,13.078,9.155s14.713,14.713,20.925,19.617
				c6.212,4.904,9.155,6.212,9.155,6.212s-0.654,14.059-1.962,19.29c-1.308,5.231-3.27,9.482-6.212,10.463
				c-2.943,0.981-3.923,0.981-3.923,0.981s-1.962,19.29,4.577,29.753c6.539,10.463,20.925,10.136,24.849,10.136
				s12.751-11.771,12.751-11.771s9.155-3.596,12.751-6.866c3.597-3.27,9.624-17.425,9.624-17.425s9.993,2.712,20.783,2.712
				c10.79,0,25.83-5.558,25.83-5.558s20.598,0,30.407-2.943c9.809-2.943,35.311-11.771,35.311-11.771s9.155,2.616,16.348,2.289
				c7.193-0.327,13.405-0.981,15.367-1.962c1.962-0.981,2.616-2.943,2.616-2.943s1.308,0,1.962-0.981
				c0.654-0.981,1.308-2.289,1.308-2.289s1.635,0,1.635-1.308c0-1.308-4.904-3.27-4.904-3.27s5.558-1.962,3.27-2.616
				s-21.579-0.981-21.579-0.981s-0.654-1.635,1.962-2.289s6.866-3.596,4.904-3.923c-1.962-0.327-1.962-0.327-1.962-0.327
				s-3.27,1.635-5.885,1.962c-2.616,0.327-4.25,1.308-5.558,2.289c-1.308,0.981-8.174,7.847-8.174,7.847s-8.501,2.289-21.906,2.616
				c-13.405,0.327-17.983,0-26.484,1.635c-8.501,1.635-17.329,3.596-17.329,3.596l-23.214,1.308c0,0-9.155-0.327-11.443-0.981
				c-2.289-0.654-6.866-1.962-12.751-7.847c-5.885-5.885-14.059-11.77-14.059-11.77L282.272,204.035z"/>
			<g>
				
					<line style="fill:none;stroke:#263238;stroke-linecap:round;stroke-linejoin:round;stroke-miterlimit:10;" x1="444.77" y1="214.824" x2="435.942" y2="215.151"/>
				
					<line style="fill:none;stroke:#263238;stroke-linecap:round;stroke-linejoin:round;stroke-miterlimit:10;" x1="448.04" y1="219.402" x2="435.615" y2="218.748"/>
				
					<line style="fill:none;stroke:#263238;stroke-linecap:round;stroke-linejoin:round;stroke-miterlimit:10;" x1="444.77" y1="222.671" x2="436.923" y2="222.998"/>
				
					<line style="fill:none;stroke:#263238;stroke-linecap:round;stroke-linejoin:round;stroke-miterlimit:10;" x1="435.942" y1="213.843" x2="436.923" y2="224.306"/>
				<path style="fill:none;stroke:#263238;stroke-linecap:round;stroke-linejoin:round;stroke-miterlimit:10;" d="M426.787,213.516
					c0,0,0,1.308-0.654,3.597c-0.654,2.289-7.847,2.616-7.847,2.616"/>
				
					<line style="fill:none;stroke:#263238;stroke-linecap:round;stroke-linejoin:round;stroke-miterlimit:10;" x1="344.721" y1="240" x2="363.031" y2="235.095"/>
				
					<line style="fill:none;stroke:#263238;stroke-linecap:round;stroke-linejoin:round;stroke-miterlimit:10;" x1="298.108" y1="242.846" x2="300.909" y2="237.057"/>
				
					<line style="fill:none;stroke:#263238;stroke-linecap:round;stroke-linejoin:round;stroke-miterlimit:10;" x1="245.653" y1="208.285" x2="251.865" y2="212.208"/>
				
					<line style="fill:none;stroke:#263238;stroke-linecap:round;stroke-linejoin:round;stroke-miterlimit:10;" x1="251.211" y1="205.669" x2="252.519" y2="214.497"/>
			</g>
		</g>
		<g>
			<path style="fill:#FFFFFF;stroke:#263238;stroke-linecap:round;stroke-linejoin:round;stroke-miterlimit:10;" d="M287.83,225.941
				c0,0,1.962-4.904,4.577-10.463c2.616-5.558,6.212-5.231,7.52-4.577c1.308,0.654,6.212,2.289,7.52,0.981
				c1.308-1.308,7.847-11.77,7.847-11.77s3.27,0,4.25-1.635l-2.616-6.866c0,0,1.962-1.962,1.962-3.924c0-1.962,0-5.231,0-5.231
				s1.308-7.193,1.308-8.828c0-1.635-6.539-3.596-13.078-0.654c-6.539,2.943-24.849,10.463-26.81,15.04
				c-1.962,4.577-2.616,14.713-2.616,14.713s-0.981,4.251-2.943,10.463"/>
			<path style="fill:#263238;stroke:#263238;stroke-linecap:round;stroke-linejoin:round;stroke-miterlimit:10;" d="
				M292.735,190.956c0,0-0.981-8.174-5.231-6.212c-4.25,1.962-3.597,8.174-2.289,10.136c1.308,1.962,3.597,1.635-0.654,4.251
				c-4.25,2.616-8.174,4.25-11.117,0c-2.943-4.251-8.174-13.078-1.962-23.541c6.212-10.463,19.944-18.964,31.715-17.983
				c11.771,0.981,11.443,5.558,11.443,5.558s8.174-5.231,13.732,3.597c5.558,8.828,3.27,13.732,0.981,13.732s-3.27-2.616-3.27-2.616
				s-1.635,3.27-3.27,3.923c-1.635,0.654-3.923,0.654-3.923,0.654l-0.981-6.539c0,0-9.809-1.635-11.117,2.289
				c-1.308,3.923-1.962,8.828-5.885,10.79C296.985,190.956,292.735,190.956,292.735,190.956z"/>
			<path style="fill:#263238;" d="M314.477,191.283c0,1.083-0.512,1.962-1.144,1.962c-0.632,0-1.144-0.878-1.144-1.962
				c0-1.083,0.512-1.962,1.144-1.962C313.965,189.321,314.477,190.2,314.477,191.283z"/>
			<path style="fill:none;stroke:#263238;stroke-linecap:round;stroke-linejoin:round;stroke-miterlimit:10;" d="M310.717,187.36
				c0,0,2.289-3.27,5.558,0"/>
			<path style="fill:none;stroke:#263238;stroke-linecap:round;stroke-linejoin:round;stroke-miterlimit:10;" d="M306.467,200.438
				c0,0,0.981,2.943,4.25,2.943"/>
			<path style="fill:#263238;stroke:#263238;stroke-linecap:round;stroke-linejoin:round;stroke-miterlimit:10;" d="
				M299.928,210.901l-8.174-7.52l1.308,10.463C293.062,213.843,295.023,208.612,299.928,210.901z"/>
		</g>
		<path style="fill:#FFFFFF;stroke:#263238;stroke-linecap:round;stroke-linejoin:round;stroke-miterlimit:10;" d="M233.555,239.019
			l-2.943-0.327c0,0-6.866-7.193-17.002-9.809c-10.136-2.616-25.503,0.981-25.503,0.981s-17.002-9.482-28.118-16.675
			c-11.117-7.193-23.214-13.732-23.214-13.732s12.097-24.849,14.059-37.927c1.962-13.078,4.577-21.579,6.212-24.522
			c1.635-2.943,3.27-6.212,3.27-6.212s6.539,2.616,8.828,0.327c2.289-2.289,1.308-10.463,1.635-13.078
			c0.327-2.616,0.981-9.809,0.981-12.751c0-2.943,0-4.25,0-4.25s1.962-3.597-0.654-2.943c-2.616,0.654-4.25,2.943-5.558,4.904
			c-1.308,1.962-7.193,15.04-11.443,21.906c-4.25,6.866-17.002,27.465-25.176,41.851c-8.174,14.386-13.732,32.696-16.675,39.235
			c-2.943,6.539-0.327,12.751,0.981,13.732c1.308,0.981,17.002,17.329,30.407,25.503c13.405,8.174,20.925,14.059,25.176,15.694
			c4.25,1.635,16.348,10.463,17.656,15.04c1.308,4.578-5.231,28.772-0.327,44.793c4.904,16.021,6.212,27.138,5.885,33.35
			c-0.327,6.212-4.904,13.732-4.904,25.503c0,11.771,5.885,33.023,6.539,36.619c0.654,3.596,3.27,17.002,3.27,21.579
			s-1.308,15.04-0.654,16.348c0.654,1.308,8.828,2.289,11.443,1.635c2.616-0.654,4.577-1.308,7.193-1.308
			c2.616,0,9.155,0.981,13.078,0.981c3.923,0,7.52,0.327,7.847-0.981c0.327-1.308-3.27-2.943-4.577-3.27
			c-1.308-0.327-9.482-3.27-13.405-7.847c-3.923-4.577-8.174-8.828-9.155-11.444c-0.981-2.616,0.981-34.658,2.289-45.447
			c1.308-10.79,2.943-22.887,3.596-25.83c0.654-2.943,3.596-9.155,5.231-21.252c1.635-12.097,4.251-45.12,4.577-47.736
			c0.327-2.616,1.962-8.174,1.962-8.174s19.29-3.597,23.868-3.597c4.577,0,11.116-0.327,14.386-1.962
			c3.27-1.635,3.923-6.866,0.327-10.79c-3.597-3.923-15.04-9.155-18.964-16.021c-3.923-6.866-6.539-9.809-6.539-9.809
			L233.555,239.019z"/>
		<path style="fill:#263238;stroke:#263238;stroke-linecap:round;stroke-linejoin:round;stroke-miterlimit:10;" d="M231.713,238.814
			l-1.1-0.122c0,0-6.866-7.193-17.002-9.809c-10.136-2.616-25.503,0.981-25.503,0.981s-17.002-9.482-28.118-16.675
			c-11.117-7.193-23.214-13.732-23.214-13.732s12.097-24.849,14.059-37.927c0.443-2.956,0.921-5.664,1.412-8.141
			c-4.507-3.336-8.502-5.266-11.678-6.377c-4.045,6.701-8.238,13.763-11.64,19.75c-8.174,14.386-13.732,32.696-16.675,39.235
			c-2.943,6.539-0.327,12.751,0.981,13.732c1.308,0.981,17.002,17.329,30.407,25.503c13.405,8.174,20.925,14.059,25.176,15.694
			c4.25,1.635,16.348,10.463,17.656,15.04c1.308,4.577-5.231,28.772-0.327,44.793c4.904,16.021,6.212,27.138,5.885,33.35
			s-4.904,13.732-4.904,25.503c0,11.771,5.885,33.023,6.539,36.619c0.094,0.519,0.231,1.248,0.393,2.12
			c6.695,1.361,11.414,0.584,14.67-0.85c0.486-10.774,1.49-24.629,2.265-31.023c1.308-10.79,2.943-22.887,3.597-25.83
			c0.654-2.943,3.597-9.155,5.231-21.252c1.635-12.097,4.25-45.12,4.577-47.736c0.327-2.616,1.962-8.174,1.962-8.174
			s2.691-0.502,6.3-1.13C223.734,265.733,229.095,246.219,231.713,238.814z"/>
		<g>
			<path style="fill:#92E3A9;stroke:#263238;stroke-linecap:round;stroke-linejoin:round;stroke-miterlimit:10;" d="
				M293.183,252.701c4.925-12.226,2.821-14.923,2.821-19.24c0-6.539,0.327-18.31,0.327-18.31l-0.385-0.578
				c-0.317-0.288-0.633-0.575-0.952-0.858c-0.116,1.838-0.644,8.311-2.586,13.86c-2.289,6.539-7.847,10.463-16.675,4.25
				c-8.828-6.212-2.616-16.348-2.616-16.348s3.463-10.966,3.339-15.546c-1.116-0.776-2.315-1.605-3.531-2.433
				c0.084,4.147-0.294,12.333-4.059,17.98c-5.231,7.847-11.117,12.751-17.329,11.77c-3.184-0.503-5.676-1.434-7.353-2.223
				c-0.153,0.972-0.317,1.844-0.494,2.55c-1.308,5.231-3.27,9.482-6.212,10.463c-2.943,0.981-3.923,0.981-3.923,0.981
				s-1.962,19.29,4.577,29.753c6.539,10.463,20.925,10.136,24.849,10.136s12.751-11.77,12.751-11.77s9.155-3.597,12.751-6.866
				C290.54,258.402,292.165,255.149,293.183,252.701z"/>
			<path style="fill:none;stroke:#263238;stroke-linecap:round;stroke-linejoin:round;stroke-miterlimit:10;" d="M247.288,240.327
				c0,0,0.327,9.155,9.482,11.117"/>
		</g>
	</g>
</g>
<g id="Floor">
	<g>
		
			<line style="fill:none;stroke:#263238;stroke-linecap:round;stroke-linejoin:round;stroke-miterlimit:10;" x1="381" y1="456" x2="486" y2="456"/>
		
			<line style="fill:none;stroke:#263238;stroke-linecap:round;stroke-linejoin:round;stroke-miterlimit:10;" x1="17" y1="456" x2="370" y2="456"/>
	</g>
</g>
</svg>
