<?xml version="1.0" encoding="utf-8"?>
<!-- Generator: Adobe Illustrator 27.5.0, SVG Export Plug-In . SVG Version: 6.00 Build 0)  -->
<svg version="1.1" xmlns="http://www.w3.org/2000/svg" xmlns:xlink="http://www.w3.org/1999/xlink" x="0px" y="0px"
	 viewBox="0 0 500 500" style="enable-background:new 0 0 500 500;" xml:space="preserve">
<g id="BACKGROUND">
</g>
<g id="OBJECTS">
	<g>
		<polygon style="fill:#7ABC9F;" points="361.643,327.314 250.494,327.314 249.506,327.314 138.357,327.314 96.331,386.881 
			249.506,386.881 250.494,386.881 403.668,386.881 		"/>
		<path style="fill:#68AD8C;" d="M258.838,365.282c10.667-0.497,18.311,1.439,21.892,1.587c3.581,0.147,10.454,6.895,13.017,5.1
			c2.747-1.923,3.014-5.865,0.076-7.843c-2.609-1.757-3.333-4.216-5.587-6.259c0.181-0.008,0.352-0.016,0.534-0.024
			c19.967-0.896,45.812-1.603,51.603-1.757l9.844,0.488c12.841-0.175,21.78-4.238,24.957-10.082l-13.53-19.178H250.494h-0.988
			H138.357l-13.53,19.178c3.177,5.845,12.116,9.907,24.957,10.082c0,0,30.251,0.254,52.87,1.268
			c0.182,0.008,0.353,0.016,0.534,0.024c-2.254,2.043-2.978,4.502-5.587,6.259c-2.938,1.978-2.671,5.92,0.076,7.843
			c2.562,1.794,9.436-4.953,13.017-5.1c3.581-0.148,11.225-2.084,21.892-1.587c4.16,0.194,8.893-0.852,13.126-2.197
			C249.945,364.43,254.679,365.476,258.838,365.282z"/>
	</g>
	<path style="fill:#C2EFEF;" d="M52.307,327.314c0,0-11.947-67.553,42.393-88.754c35.33-13.785,33.873-66.249,73.034-78.688
		c27.621-8.774,57.114-5.788,89.661,29.528c36.321,39.411,53.446-1.633,100.544,22.821c27.804,14.436,15.186,51.888,45.981,58.033
		c40.143,8.01,44.887,57.06,44.887,57.06H52.307z"/>
	<g>
		<ellipse style="fill:#C2EFEF;" cx="411.916" cy="350.135" rx="22.749" ry="4.917"/>
		<g>
			<g>
				<g>
					<path style="fill:#7ABC9F;" d="M446.22,281.021c-1.469,2.626-3.034,5.258-5.232,7.349c-2.173,2.067-4.92,3.303-7.665,4.417
						c-2.64,1.071-5.329,2.083-7.704,3.686c-2.207,1.49-4.128,3.367-5.693,5.519c-1.776,2.443-3.051,5.238-3.729,8.18
						c-0.153,0.665,0.87,0.949,1.024,0.282c1.216-5.274,4.439-10.033,8.934-13.065c4.729-3.191,10.732-4.009,15.09-7.819
						c2.52-2.203,4.275-5.125,5.892-8.015C447.471,280.96,446.554,280.424,446.22,281.021z"/>
					<path style="fill:#7ABC9F;" d="M446.976,281.195c0,0-5.995-4.004,2.858-12.917
						C449.834,268.278,455.356,278.605,446.976,281.195z"/>
					<path style="fill:#7ABC9F;" d="M443.14,286.721c0,0-6.904-0.102-4.42-11.875C438.72,274.847,448.533,280.279,443.14,286.721z"
						/>
					<path style="fill:#7ABC9F;" d="M434.574,293.41c0,0-6.365-0.999-2.527-11.551C432.047,281.859,440.401,288.165,434.574,293.41z
						"/>
					<path style="fill:#7ABC9F;" d="M440.594,289.928c0,0,2.595-6.726,13.229-0.037
						C453.823,289.891,444.955,297.539,440.594,289.928z"/>
					<path style="fill:#7ABC9F;" d="M425.442,297.731c0,0,4.662-5.498,12.506,4.315
						C437.948,302.045,427.058,306.352,425.442,297.731z"/>
				</g>
				<g>
					<path style="fill:#7ABC9F;" d="M429.895,261.394c-0.013,6.624-2.919,12.718-6.15,18.346c-3.301,5.749-7.069,11.29-9.212,17.617
						c-1.174,3.466-1.789,7.125-1.463,10.785c0.06,0.676,1.123,0.682,1.062,0c-0.6-6.746,2.08-13.133,5.277-18.919
						c3.179-5.754,6.986-11.174,9.396-17.327c1.313-3.353,2.145-6.889,2.152-10.502C430.959,260.71,429.896,260.709,429.895,261.394
						z"/>
					<path style="fill:#7ABC9F;" d="M430.693,262.904c0,0-6.686-2.695,0.16-13.228C430.853,249.675,438.368,258.657,430.693,262.904
						z"/>
					<path style="fill:#7ABC9F;" d="M427.515,273.773c0,0-6.78,2.45-8.702-9.964C418.813,263.809,430.402,265.491,427.515,273.773z"
						/>
					<path style="fill:#7ABC9F;" d="M421.771,284.704c0,0-6.43,3.261-9.855-8.826C411.916,275.878,423.625,276.13,421.771,284.704z"
						/>
					<path style="fill:#7ABC9F;" d="M429.711,269.239c0,0-2.002-6.925,10.512-8.032
						C440.223,261.207,437.787,272.662,429.711,269.239z"/>
					<path style="fill:#7ABC9F;" d="M424.292,279.846c0,0,0.868-7.157,12.817-3.278
						C437.109,276.567,430.385,286.156,424.292,279.846z"/>
					<path style="fill:#7ABC9F;" d="M417.315,292.357c0,0,0.822-6.777,12.136-3.104
						C429.451,289.253,423.084,298.332,417.315,292.357z"/>
				</g>
				<g>
					<path style="fill:#7ABC9F;" d="M402.194,276.974c-0.553-2.869-0.642-5.796,0.088-8.641c0.17-0.662-0.878-0.838-1.047-0.179
						c-2.685,10.462,4.908,19.883,6.14,29.952c0.366,2.992,0.159,6.025-1.039,8.817c-0.269,0.628,0.692,1.08,0.962,0.451
						C411.713,297.079,404.102,286.875,402.194,276.974z"/>
					<path style="fill:#7ABC9F;" d="M401.207,270.881c0,0-6.686-2.695,0.16-13.228C401.366,257.653,408.882,266.634,401.207,270.881
						z"/>
					<path style="fill:#7ABC9F;" d="M401.72,278.437c0,0-5.264,4.926-11.927-5.724C389.793,272.713,401.106,269.687,401.72,278.437z
						"/>
					<path style="fill:#7ABC9F;" d="M403.609,283.689c0,0-4.12-5.916,7.376-10.982C410.985,272.707,412.357,284.337,403.609,283.689
						z"/>
					<path style="fill:#7ABC9F;" d="M406.283,292.888c0,0-2.526-6.317,9.121-8.524C415.404,284.364,414.186,295.349,406.283,292.888
						z"/>
				</g>
				<g>
					<path style="fill:#7ABC9F;" d="M407.739,310.233c-1.905-3.977-4.421-7.472-7.975-10.128c-3.495-2.612-7.55-4.526-10.456-7.863
						c-1.519-1.744-2.661-3.856-2.846-6.192c-0.053-0.677-1.116-0.683-1.062,0c0.326,4.137,3.149,7.437,6.325,9.86
						c3.669,2.799,7.926,4.787,10.988,8.331c1.688,1.954,2.997,4.205,4.109,6.527C407.117,311.386,408.033,310.847,407.739,310.233z
						"/>
					<path style="fill:#7ABC9F;" d="M386.086,287.013c0,0-7.061-1.455-2.21-13.043C383.876,273.97,392.877,281.461,386.086,287.013z
						"/>
					<path style="fill:#7ABC9F;" d="M391.037,294.32c0,0-5.734-4.37,3.657-12.714C394.695,281.606,399.563,292.257,391.037,294.32z"
						/>
					<path style="fill:#7ABC9F;" d="M400.452,300.923c0,0-6.198-2.215-0.336-12.073C400.116,288.85,407.299,296.77,400.452,300.923z
						"/>
					<path style="fill:#7ABC9F;" d="M388.15,292.346c0,0-3.188,6.466-13.179-1.149C374.971,291.197,384.489,284.375,388.15,292.346z
						"/>
					<path style="fill:#7ABC9F;" d="M396.336,298.943c0,0-1.085,7.127-12.91,2.887C383.425,301.83,390.438,292.451,396.336,298.943z
						"/>
				</g>
			</g>
			<path style="fill:#CE7D61;" d="M396.633,304.924c-0.77,0-1.45,0.356-1.894,0.906c-0.382,0.473-0.589,1.09-0.528,1.748
				l3.502,38.218c0.123,1.341,0.792,2.51,1.775,3.296c0.82,0.655,1.858,1.044,2.98,1.044h19.241c1.436,0,2.735-0.637,3.614-1.654
				c0.632-0.731,1.047-1.658,1.141-2.686l3.502-38.218c0.057-0.619-0.123-1.201-0.461-1.661c-0.441-0.6-1.151-0.993-1.961-0.993
				H396.633z"/>
			<path style="fill:#AF5E48;" d="M414.669,340.561c0,1.425-1.155,2.58-2.58,2.58c-1.425,0-2.58-1.155-2.58-2.58
				s1.155-2.58,2.58-2.58C413.514,337.981,414.669,339.136,414.669,340.561z M401.186,314.939c-1.425,0-2.58,1.155-2.58,2.58
				c0,1.425,1.155,2.58,2.58,2.58c1.425,0,2.58-1.155,2.58-2.58C403.766,316.094,402.611,314.939,401.186,314.939z M412.09,314.939
				c-1.425,0-2.58,1.155-2.58,2.58c0,1.425,1.155,2.58,2.58,2.58c1.425,0,2.58-1.155,2.58-2.58
				C414.669,316.094,413.514,314.939,412.09,314.939z M422.993,314.939c-1.425,0-2.58,1.155-2.58,2.58c0,1.425,1.155,2.58,2.58,2.58
				s2.58-1.155,2.58-2.58C425.573,316.094,424.418,314.939,422.993,314.939z M406.638,326.46c-1.425,0-2.58,1.155-2.58,2.58
				c0,1.425,1.155,2.58,2.58,2.58s2.58-1.155,2.58-2.58C409.218,327.615,408.063,326.46,406.638,326.46z M417.541,326.46
				c-1.425,0-2.58,1.155-2.58,2.58c0,1.425,1.155,2.58,2.58,2.58c1.425,0,2.58-1.155,2.58-2.58
				C420.121,327.615,418.966,326.46,417.541,326.46z"/>
		</g>
	</g>
	<g>
		<ellipse style="fill:#C2EFEF;" cx="88.884" cy="350.135" rx="22.749" ry="4.917"/>
		<g>
			<g>
				<g>
					<path style="fill:#7ABC9F;" d="M128.492,287.399c-1.799,2.413-3.693,4.818-6.145,6.605c-2.424,1.766-5.308,2.634-8.176,3.381
						c-2.757,0.717-5.555,1.371-8.118,2.651c-2.382,1.19-4.531,2.8-6.363,4.731c-2.079,2.191-3.708,4.796-4.763,7.625
						c-0.239,0.64,0.739,1.055,0.979,0.413c1.892-5.071,5.709-9.369,10.56-11.79c5.105-2.547,11.163-2.577,15.98-5.786
						c2.786-1.856,4.906-4.524,6.886-7.179C129.741,287.501,128.901,286.85,128.492,287.399z"/>
					<path style="fill:#7ABC9F;" d="M129.219,287.67c0,0-5.422-4.751,4.517-12.434C133.736,275.235,137.866,286.194,129.219,287.67z
						"/>
					<path style="fill:#7ABC9F;" d="M124.696,292.649c0,0-6.832-1.001-2.835-12.349C121.861,280.3,130.882,286.965,124.696,292.649z
						"/>
					<path style="fill:#7ABC9F;" d="M115.332,298.165c0,0-6.181-1.82-1-11.781C114.332,286.383,121.792,293.724,115.332,298.165z"/>
					<path style="fill:#7ABC9F;" d="M102.819,302.488c0,0-5.722-3.705,2.528-12.252
						C105.346,290.236,110.708,299.926,102.819,302.488z"/>
					<path style="fill:#7ABC9F;" d="M121.754,295.497c0,0,3.45-6.33,13.121,1.687C134.875,297.184,125.086,303.611,121.754,295.497z
						"/>
					<path style="fill:#7ABC9F;" d="M105.715,301.259c0,0,5.339-4.844,11.837,5.907
						C117.552,307.166,106.193,310.018,105.715,301.259z"/>
				</g>
				<g>
					<path style="fill:#7ABC9F;" d="M75.84,261.797c-0.609,6.596,1.711,12.936,4.399,18.843c2.746,6.034,5.977,11.904,7.516,18.405
						c0.843,3.561,1.112,7.261,0.443,10.874c-0.123,0.667-1.182,0.573-1.057-0.1c1.232-6.66-0.837-13.27-3.476-19.331
						c-2.624-6.027-5.905-11.781-7.726-18.133c-0.992-3.461-1.488-7.06-1.156-10.658C74.846,261.016,75.903,261.115,75.84,261.797z"
						/>
					<path style="fill:#7ABC9F;" d="M74.904,263.225c0,0,6.91-2.055,1.084-13.185C75.988,250.04,67.662,258.276,74.904,263.225z"/>
					<path style="fill:#7ABC9F;" d="M77.047,274.345c0,0,6.52,3.076,9.6-9.103C86.646,265.243,74.95,265.828,77.047,274.345z"/>
					<path style="fill:#7ABC9F;" d="M81.738,285.767c0,0,6.095,3.85,10.641-7.861C92.378,277.906,80.698,277.057,81.738,285.767z"/>
					<path style="fill:#7ABC9F;" d="M75.286,269.625c0,0,2.644-6.707-9.711-8.984C65.575,260.641,66.924,272.274,75.286,269.625z"/>
					<path style="fill:#7ABC9F;" d="M79.685,280.694c0,0-0.192-7.206-12.452-4.468C67.233,276.226,73.026,286.403,79.685,280.694z"
						/>
					<path style="fill:#7ABC9F;" d="M85.456,293.805c0,0-0.181-6.824-11.791-4.231C73.665,289.574,79.15,299.212,85.456,293.805z"/>
				</g>
				<g>
					<path style="fill:#7ABC9F;" d="M103.107,282.318c1.001-2.745,1.554-5.62,1.285-8.546c-0.063-0.681,1-0.688,1.062-0.011
						c0.99,10.755-8.002,18.852-10.817,28.598c-0.836,2.896-1.113,5.923-0.374,8.87c0.166,0.663-0.855,0.956-1.021,0.293
						C90.518,300.656,99.652,291.789,103.107,282.318z"/>
					<path style="fill:#7ABC9F;" d="M105.049,276.458c0,0,7.029-1.599,1.942-13.086C106.991,263.373,98.146,271.047,105.049,276.458
						z"/>
					<path style="fill:#7ABC9F;" d="M103.343,283.837c0,0,4.415,5.699,12.684-3.758
						C116.027,280.079,105.338,275.296,103.343,283.837z"/>
					<path style="fill:#7ABC9F;" d="M100.644,288.723c0,0,5.007-5.187-5.539-12.014C95.105,276.709,91.904,287.974,100.644,288.723z
						"/>
					<path style="fill:#7ABC9F;" d="M96.544,297.381c0,0,3.497-5.836-7.653-9.864C88.891,287.517,88.35,298.556,96.544,297.381z"/>
				</g>
				<g>
					<path style="fill:#7ABC9F;" d="M78.945,310.233c-1.905-3.977-4.421-7.472-7.975-10.128c-3.495-2.612-7.55-4.526-10.456-7.863
						c-1.519-1.744-2.661-3.856-2.846-6.192c-0.053-0.677-1.116-0.683-1.062,0c0.326,4.137,3.149,7.437,6.325,9.86
						c3.669,2.799,7.927,4.787,10.988,8.331c1.688,1.954,2.996,4.205,4.109,6.527C78.322,311.386,79.239,310.847,78.945,310.233z"/>
					<path style="fill:#7ABC9F;" d="M57.292,287.013c0,0-7.061-1.455-2.21-13.043C55.082,273.97,64.083,281.461,57.292,287.013z"/>
					<path style="fill:#7ABC9F;" d="M62.243,294.32c0,0-5.734-4.37,3.657-12.714C65.9,281.606,70.769,292.257,62.243,294.32z"/>
					<path style="fill:#7ABC9F;" d="M71.658,300.923c0,0-6.198-2.215-0.336-12.073C71.321,288.85,78.504,296.77,71.658,300.923z"/>
					<path style="fill:#7ABC9F;" d="M59.356,292.346c0,0-3.188,6.466-13.179-1.149C46.176,291.197,55.695,284.375,59.356,292.346z"
						/>
					<path style="fill:#7ABC9F;" d="M67.541,298.943c0,0-1.085,7.127-12.91,2.887C54.631,301.83,61.643,292.451,67.541,298.943z"/>
				</g>
			</g>
			<path style="fill:#DB8A67;" d="M104.339,304.924c0.77,0,1.45,0.356,1.894,0.906c0.382,0.473,0.589,1.09,0.528,1.748
				l-3.502,38.218c-0.123,1.341-0.792,2.51-1.775,3.296c-0.82,0.655-1.858,1.044-2.98,1.044H79.262
				c-1.436,0-2.735-0.637-3.614-1.654c-0.632-0.731-1.047-1.658-1.141-2.686l-3.502-38.218c-0.057-0.619,0.123-1.201,0.461-1.661
				c0.441-0.6,1.151-0.993,1.961-0.993H104.339z"/>
			<path style="fill:#AF5E48;" d="M88.883,337.981c1.425,0,2.58,1.155,2.58,2.58s-1.155,2.58-2.58,2.58
				c-1.425,0-2.58-1.155-2.58-2.58S87.458,337.981,88.883,337.981z M97.207,317.519c0,1.425,1.155,2.58,2.58,2.58
				c1.425,0,2.58-1.155,2.58-2.58c0-1.425-1.155-2.58-2.58-2.58C98.362,314.939,97.207,316.094,97.207,317.519z M86.303,317.519
				c0,1.425,1.155,2.58,2.58,2.58c1.425,0,2.58-1.155,2.58-2.58c0-1.425-1.155-2.58-2.58-2.58
				C87.458,314.939,86.303,316.094,86.303,317.519z M75.399,317.519c0,1.425,1.155,2.58,2.58,2.58c1.425,0,2.58-1.155,2.58-2.58
				c0-1.425-1.155-2.58-2.58-2.58C76.554,314.939,75.399,316.094,75.399,317.519z M91.755,329.04c0,1.425,1.155,2.58,2.58,2.58
				c1.425,0,2.58-1.155,2.58-2.58c0-1.425-1.155-2.58-2.58-2.58C92.91,326.46,91.755,327.615,91.755,329.04z M80.851,329.04
				c0,1.425,1.155,2.58,2.58,2.58c1.425,0,2.58-1.155,2.58-2.58c0-1.425-1.155-2.58-2.58-2.58
				C82.006,326.46,80.851,327.615,80.851,329.04z"/>
		</g>
	</g>
	<g>
		<path style="fill:#EA9E78;" d="M347.736,300.768c0.343-0.072,7.707,2.783,7.707,2.783s5.702-5.844,9.818-6.703
			c4.117-0.859,7.936-7.145,9.957-6.612c2.021,0.533,3.575,2.834,1.193,5.718c-2.382,2.884-6.784,5.234-6.784,5.234
			s0.353,2.289,3.589,1.757c5.514-0.907,3.19-5.297,4.136-7.057c0.945-1.76,2.054-1.159,2.81-0.28
			c0.641,0.746,2.436,3.112,2.289,7.558s-2.756,7.377-2.756,7.377s-0.59,3.464-3.124,4.471c-2.534,1.006-4.577,6.086-9.094,5.597
			c-4.517-0.489-13.435-6.623-13.435-6.623l-8.615-2.582L347.736,300.768z"/>
		<path style="fill:#DD8762;" d="M381.365,303.023c-0.807-2.342-1.883-3.901-2.543-2.691c-0.578,1.061-0.154,4.805-0.039,5.717
			c-0.098-0.183-0.444-0.45-1.588-0.627c-1.883-0.291-1.345,5.941-1.345,5.941s-0.942-1.883-2.422-0.942
			c-1.48,0.942-1.48,5.247-3.498,6.054c-2.018,0.807-8.61-2.96-10.493-4.574c-1.884-1.615-11.157-3.801-11.157-3.801l-2.295,0.732
			l-0.558,2.571l8.615,2.582c0,0,8.917,6.134,13.435,6.623c4.517,0.489,6.56-4.591,9.094-5.597c2.535-1.006,3.124-4.471,3.124-4.471
			s1.348-1.523,2.16-4.029C381.773,305.09,381.626,303.78,381.365,303.023z"/>
		<path style="fill:#EA9E78;" d="M152.264,300.768c-0.343-0.072-7.707,2.783-7.707,2.783s-5.702-5.844-9.818-6.703
			c-4.117-0.859-7.936-7.145-9.957-6.612c-2.021,0.533-3.575,2.834-1.193,5.718c2.382,2.884,6.784,5.234,6.784,5.234
			s-0.353,2.289-3.589,1.757c-5.514-0.907-3.19-5.297-4.136-7.057c-0.945-1.76-2.054-1.159-2.809-0.28
			c-0.641,0.746-2.436,3.112-2.289,7.558c0.146,4.446,2.756,7.377,2.756,7.377s0.59,3.464,3.124,4.471
			c2.535,1.006,4.577,6.086,9.094,5.597s13.435-6.623,13.435-6.623l8.615-2.582L152.264,300.768z"/>
		<path style="fill:#DD8762;" d="M118.635,303.023c0.807-2.342,1.883-3.901,2.543-2.691c0.578,1.061,0.153,4.805,0.039,5.717
			c0.098-0.183,0.444-0.45,1.588-0.627c1.883-0.291,1.345,5.941,1.345,5.941s0.942-1.883,2.421-0.942
			c1.48,0.942,1.48,5.247,3.498,6.054c2.018,0.807,8.61-2.96,10.493-4.574c1.883-1.615,11.157-3.801,11.157-3.801l2.295,0.732
			l0.558,2.571l-8.615,2.582c0,0-8.917,6.134-13.435,6.623c-4.517,0.489-6.56-4.591-9.094-5.597
			c-2.535-1.006-3.124-4.471-3.124-4.471s-1.347-1.523-2.16-4.029C118.227,305.09,118.374,303.78,118.635,303.023z"/>
		<path style="fill:#4C3275;" d="M358.153,317.615c-13.121-4.913-58.074-8.781-58.074-8.781H250h-50.079
			c0,0-44.953,3.868-58.074,8.781c-13.122,4.913-18.688,11.945-18.291,20.087c0.398,8.142,10.327,14.316,26.227,14.533L250,347.263
			l100.217,4.971c15.9-0.217,25.829-6.39,26.227-14.533C376.841,329.559,371.274,322.527,358.153,317.615z"/>
		<path style="fill:#3A275E;" d="M183.928,339.74c-1.435-0.625-20.49-12.495-20.49-12.495s26.806-4.054,43.278,0
			c16.471,4.054,56.52,5.566,74.929,0c18.409-5.566,49.414,0,49.414,0l-14.857,17.882l-146.266,2.351L183.928,339.74z"/>
		<g>
			<path style="fill:#3A275E;" d="M216.336,348.933l-49.669-1.67c0,0-34.297,1.472-39.081-15.663
				c-0.402-1.441-0.58-2.896-0.598-4.354c-2.511,3.185-3.616,6.7-3.432,10.456c0.398,8.142,10.327,14.316,26.227,14.533
				L216.336,348.933z"/>
			<path style="fill:#3A275E;" d="M373.92,343.983c-15.588,2.915-38.986-1.26-38.986-1.26l-10.344,8.24l25.626,1.271
				C361.664,352.078,369.991,348.826,373.92,343.983z"/>
		</g>
		<path style="fill:#DB8A67;" d="M341.64,351.809l-3.27-24.434c-35.8-4.378-56.719,11.021-78.53,12.184
			c-0.008,0.025-0.013,0.043-0.02,0.068c-1.556,0.025-7.135,0.087-11.377-0.229c-4.975-0.37-5.949-2.951-11.876-3.46
			c-6.712-0.577-10.203,7.645-13.678,10.876c-3.476,3.232-9.248,2.234-15.469,4.327c-6.221,2.093-6.046,6.104-9.819,8.645
			c-2.938,1.978-2.671,5.92,0.076,7.843c2.562,1.794,9.436-4.953,13.017-5.1c3.581-0.148,11.225-2.084,21.892-1.587
			c8.095,0.377,18.381-3.932,22.872-6.032c9.541-0.247,20.346-0.826,33.312-1.407C311.39,352.488,341.64,351.809,341.64,351.809z"/>
		<path style="fill:#DB8A67;" d="M341.572,351.715l-3.202-24.34c-35.8-4.378-56.719,11.021-78.53,12.184
			c-0.008,0.025-0.013,0.043-0.02,0.068c-1.556,0.025-7.135,0.087-11.377-0.229c-4.975-0.37-5.949-2.951-11.876-3.46
			c-6.712-0.577-10.203,7.645-13.678,10.876c-3.476,3.232-9.248,2.234-15.469,4.327c-6.221,2.093-6.046,6.104-9.819,8.645
			c-2.938,1.978-2.671,5.92,0.076,7.843c2.562,1.794,9.436-4.953,13.017-5.1c3.581-0.148,11.225-2.084,21.892-1.587
			c8.095,0.377,18.381-3.932,22.872-6.032c9.541-0.247,20.346-0.826,33.312-1.407C311.39,352.488,341.572,351.715,341.572,351.715z"
			/>
		<path style="fill:#CE7D61;" d="M232.585,360.942c-10.667-0.497-18.311,1.439-21.892,1.587c-3.581,0.147-10.454,6.895-13.017,5.1
			c-0.042-0.03-0.079-0.064-0.12-0.095c2.566-1.76,5.138-5.001,7.824-7.441c4.747-4.314,18.425-4.995,25.731-4.087
			c7.306,0.908,17.574-7.038,25.623-8.173c7.322-1.033,61.461-1.127,83.488-6.372l1.417,10.348c0,0-30.25,0.679-52.87,1.694
			c-12.967,0.582-23.772,1.16-33.312,1.407C250.966,357.01,240.681,361.319,232.585,360.942z"/>
		<path style="fill:#3A275E;" d="M248.497,113.696c10.193-3,23.544,6.14,27.345,17.056c3.205,9.205,1.299,23.025-0.747,33.461
			c-2.046,10.436,11.459,36.115,5.525,53.713c-4.388,13.012-22.817,20.542-32.123,23.583c-9.305-3.04-27.735-10.57-32.123-23.583
			c-5.934-17.597,7.571-43.277,5.525-53.713c-2.046-10.436-3.952-24.256-0.747-33.461
			C224.953,119.836,238.304,110.696,248.497,113.696z"/>
		<path style="fill:#4C3275;" d="M248.497,113.696c10.193-3,23.544,6.14,27.345,17.056c3.205,9.205,1.299,23.025-0.747,33.461
			c-2.046,10.436,11.459,36.115,5.525,53.713c-4.388,13.012-22.817,20.542-32.123,23.583c-9.305-3.04-27.735-10.57-32.123-23.583
			c-5.934-17.597,7.571-43.277,5.525-53.713c-2.046-10.436-3.952-24.256-0.747-33.461
			C224.953,119.836,238.304,110.696,248.497,113.696z"/>
		<path style="fill:#3A275E;" d="M277.743,210.35c-0.581-6.388-5.033-24.779-7.163-33.036c-2.129-8.258,2.63-19.72,2.63-19.72
			l-1.258,1.168l0.663-1.747c1.26-7.935-4.568-13.35-4.568-13.35l-3.745,3.778l-3.212,12.407l5.263,4.112l-0.967,0.897
			l-16.889-17.422c0,0-14.697,14.906-21.86,8.905c-6.886-5.77-6.257-21.835-6.199-23.066c-2.145,9.081-0.408,21.414,1.46,30.938
			c2.046,10.436-11.459,36.115-5.525,53.713c3.112,9.228,13.284,15.696,22.258,19.764l31.368-9.917
			C269.999,227.772,278.324,216.738,277.743,210.35z"/>
		<path style="fill:#EA9E78;" d="M248.497,320.271c25.864,0,45.11-11.437,45.11-11.437c-4.756-14.079-11.636-13.831-13.919-25.246
			c-2.283-11.415,3.11-19.807,4.376-27.207c1.712-10.006,0.951-18.264,0.951-18.264s6.016,23.805,9.048,36.926
			c1.799-2.078,3.628-4.13,5.5-6.142c2.611-2.807,5.245-5.598,7.905-8.363c-0.996-4.896-2.024-9.947-2.857-14.049
			c-2.473-12.176-5.327-24.353-6.849-32.68c-1.522-8.328-8.942-11.269-16.172-12.601c-7.23-1.332-16.933-7.42-16.933-7.42
			c-6.469-7.991-5.708-21.309-5.708-21.309h-20.906c0,0,0.761,13.318-5.708,21.309c0,0-9.703,6.088-16.933,7.42
			c-7.23,1.332-14.65,4.273-16.172,12.601c-1.522,8.327-4.376,20.504-6.849,32.68c-0.833,4.102-1.861,9.153-2.857,14.049
			c2.661,2.765,5.294,5.556,7.905,8.363c1.872,2.012,3.702,4.064,5.5,6.142c3.031-13.121,9.048-36.926,9.048-36.926
			s-0.761,8.258,0.951,18.264c1.266,7.4,6.659,15.791,4.376,27.207c-2.283,11.415-9.163,11.167-13.92,25.246
			C203.386,308.833,222.633,320.271,248.497,320.271z"/>
		<path style="fill:#DD8762;" d="M252.285,184.94c3.209,0.169,5.641-1.576,7.313-3.438c-0.877-4.973-0.648-9.024-0.648-9.024
			h-20.906c0,0,0.761,13.318-5.708,21.309c0,0-7.836,4.908-14.672,6.871c3.376,3.133,7.163,5.352,10.821,4.732
			c10.401-1.763,10.401-8.991,12.164-13.398C242.412,187.584,245.586,184.587,252.285,184.94z"/>
		<path style="fill:#E54559;" d="M248.497,320.271c25.864,0,45.11-11.437,45.11-11.437c-4.756-14.079-11.636-13.831-13.919-25.246
			c-2.283-11.415,3.416-19.145,5.052-26.471c0.191-0.855,0.338-1.642,0.451-2.37c3.547,11.13,10.401,31.761,10.401,31.761
			s1.223,5.88,8.829,10.588c4.376,3.805,42.205,17.057,42.205,17.057l4.134-15.137c0,0-10.524-1.766-18.658-7.341
			c-8.801-6.032-20.832-12.463-20.832-12.463s-4.186-20.548-6.659-32.724c-2.473-12.176-5.327-24.353-6.849-32.68
			c-1.522-8.328-8.942-11.269-16.172-12.601c-3.796-0.699-8.263-2.707-11.66-4.459c-0.718,5.248-4.472,13.999-21.434,14.774
			c-16.962-0.775-20.716-9.525-21.434-14.774c-3.397,1.752-7.864,3.76-11.66,4.459c-7.23,1.332-14.65,4.273-16.172,12.601
			c-1.522,8.327-4.376,20.504-6.849,32.68c-2.473,12.176-6.659,32.724-6.659,32.724s-12.031,6.431-20.832,12.463
			c-8.134,5.575-18.658,7.341-18.658,7.341l4.134,15.137c0,0,37.829-13.252,42.205-17.057c7.606-4.708,8.829-10.588,8.829-10.588
			s6.854-20.631,10.401-31.761c0.113,0.728,0.26,1.515,0.451,2.37c1.636,7.327,7.336,15.056,5.053,26.471
			c-2.283,11.415-9.163,11.167-13.92,25.246C203.386,308.833,222.633,320.271,248.497,320.271z"/>
		<path style="fill:#EA9E78;" d="M248.497,179.821c12.898,0,18.389-11.365,19.416-16.116c0,0,3.088-0.126,4.715-3.906
			c2.009-4.667-1.267-8.383-3.914-5.178c0,0,2.004-7.348-0.668-10.955c-2.378-3.21-15.55-8.114-19.55-16.406
			c-4,8.292-17.172,13.195-19.55,16.406c-2.672,3.607-0.668,10.955-0.668,10.955c-2.647-3.205-5.923,0.512-3.914,5.178
			c1.628,3.78,4.715,3.906,4.715,3.906C230.108,168.456,235.599,179.821,248.497,179.821z"/>
		<path style="fill:#DD8762;" d="M236.189,171.695c-5.317-7.562-4.96-24.879-4.715-30.146c-1.157,0.779-2.057,1.481-2.527,2.115
			c-2.672,3.607-0.668,10.955-0.668,10.955c-2.647-3.205-5.923,0.512-3.914,5.178c1.628,3.78,4.715,3.906,4.715,3.906
			c1.027,4.752,6.518,16.116,19.416,16.116c0.446,0,0.881-0.017,1.309-0.043C246.754,179.513,240.721,178.14,236.189,171.695z"/>
		<path style="fill:#EA9E78;" d="M293.823,359.786c-3.773-2.54-3.598-6.552-9.819-8.645c-6.221-2.093-11.993-1.095-15.469-4.327
			c-3.476-3.232-6.966-11.453-13.679-10.876c-5.927,0.509-6.901,3.091-11.876,3.46c-4.242,0.315-9.822,0.254-11.378,0.229
			c-0.007-0.025-0.012-0.042-0.02-0.068c-21.81-1.163-42.73-16.562-78.53-12.184l-3.27,24.859c0,0,30.251,0.254,52.87,1.268
			c12.967,0.582,23.772,1.16,33.312,1.407c4.492,2.1,14.777,6.409,22.872,6.032c10.667-0.497,18.311,1.439,21.892,1.587
			c3.581,0.147,10.454,6.895,13.017,5.1C296.494,365.706,296.761,361.765,293.823,359.786z"/>
		<path style="fill:#DB8A67;" d="M258.838,360.942c10.667-0.497,18.311,1.439,21.892,1.587c3.581,0.147,10.454,6.895,13.017,5.1
			c0.042-0.03,0.079-0.064,0.12-0.095c-2.566-1.76-5.138-5.001-7.824-7.441c-4.747-4.314-18.425-4.995-25.731-4.087
			c-7.306,0.908-17.574-7.038-25.623-8.173c-7.322-1.033-61.461-1.127-83.488-6.372l-1.417,10.773c0,0,30.251,0.254,52.87,1.268
			c12.967,0.582,23.772,1.16,33.312,1.407C240.457,357.01,250.743,361.319,258.838,360.942z"/>
		<path style="fill:#C92D47;" d="M164.892,291.674c8.801-6.032,20.832-12.463,20.832-12.463s4.186-20.548,6.659-32.724
			c2.473-12.176,5.327-24.353,6.849-32.68c1.522-8.328,8.942-11.269,16.172-12.601c3.796-0.699,8.263-2.707,11.66-4.459
			c0.321,2.348,1.255,5.397,3.703,8.119l0,0c0,0-7.48,2.998-11.967,3.746c-4.488,0.748-11.967,3.74-14.211,10.222
			c-2.244,6.482-15.063,64.821-15.063,64.821s-7.624,4.238-14.356,8.477c-5.331,3.357-21.128,9.729-27.475,12.237l-1.462-5.353
			C146.233,299.016,156.758,297.249,164.892,291.674z M348.109,308.722c-12.735-3.825-38.304-16.435-42.55-19.832
			c-4.986-3.989-10.97-26.427-12.818-38.394c-1.848-11.967-9.193-18.326-9.193-18.326c5.758,7.811,1.643,22.575,1.643,22.575
			c3.547,11.13,10.401,31.761,10.401,31.761s1.223,5.88,8.829,10.588c4.376,3.805,42.205,17.057,42.205,17.057L348.109,308.722z
			 M255.172,269.714c6.006,1.442,16.347-5.79,16.347-5.79s-9.309,3.519-19.87-0.98c-9.963-4.244-25.22,6.587-31.845-1.86
			c-6.625-8.447-3.478-25.01-3.478-25.01c-5.963,6.791-4.524,18.67-4.524,18.67c0.113,0.728,0.26,1.515,0.451,2.37
			c1.637,7.327,7.336,15.056,5.053,26.471c-2.283,11.415-9.163,11.167-13.92,25.246c0,0,5.803,3.442,15.305,6.55
			c-0.022-9.96,4.602-14.629,7.904-20.345C231.599,286.378,229.553,263.563,255.172,269.714z"/>
	</g>
	<path style="opacity:0.38;fill:#FFFFFF;" d="M154.574,252.696c-3.423,0-3.417-5.311,0-5.311
		C157.997,247.385,157.992,252.696,154.574,252.696z M170.445,232.837c-3.417,0-3.423,5.311,0,5.311
		C173.862,238.148,173.868,232.837,170.445,232.837z M150.474,227.672c-3.417,0-3.423,5.311,0,5.311
		C153.891,232.983,153.897,227.672,150.474,227.672z"/>
	<path style="opacity:0.38;fill:#FFFFFF;" d="M352.251,271.548c-3.423,0-3.417-5.311,0-5.311
		C355.673,266.237,355.668,271.548,352.251,271.548z M357.76,253.152c-3.417,0-3.423,5.311,0,5.311
		C361.177,258.463,361.183,253.152,357.76,253.152z M340.888,248.676c-3.417,0-3.423,5.311,0,5.311
		C344.305,253.987,344.311,248.676,340.888,248.676z"/>
	<g>
		
			<ellipse transform="matrix(0.5291 -0.8486 0.8486 0.5291 -20.9243 426.6367)" style="fill:#C2EFEF;" cx="373.92" cy="232.17" rx="19.373" ry="19.373"/>
		<g>
			<g>
				<path style="fill:#83B5C6;" d="M386.897,242.635c0,3.585-5.546,4.59-12.387,4.59c-6.841,0-12.387-1.005-12.387-4.59
					c0-3.585,5.546-6.492,12.387-6.492C381.351,236.144,386.897,239.05,386.897,242.635z"/>
				<path style="fill:#6C9FAD;" d="M377.782,244.367c-6.47,0-11.715-2.733-11.715-6.104c0-0.131,0.022-0.258,0.038-0.387
					c-2.443,1.186-3.981,2.876-3.981,4.758c0,3.585,5.546,4.59,12.387,4.59s12.387-1.005,12.387-4.59
					c0-0.171-0.024-0.339-0.049-0.507C384.699,243.495,381.437,244.367,377.782,244.367z"/>
			</g>
			<g>
				<path style="fill:#83B5C6;" d="M383.248,233.745c0,3.228-4.993,4.132-11.152,4.132s-11.152-0.904-11.152-4.132
					c0-3.228,4.993-5.845,11.152-5.845S383.248,230.517,383.248,233.745z"/>
				<path style="fill:#6C9FAD;" d="M375.042,235.304c-5.826,0-10.548-2.46-10.548-5.495c0-0.117,0.02-0.232,0.034-0.348
					c-2.199,1.067-3.584,2.589-3.584,4.284c0,3.228,4.993,4.132,11.152,4.132s11.152-0.905,11.152-4.132
					c0-0.154-0.022-0.305-0.044-0.456C381.27,234.518,378.333,235.304,375.042,235.304z"/>
			</g>
			<g>
				<path style="fill:#83B5C6;" d="M386.22,226.204c0,2.544-3.934,3.256-8.788,3.256c-4.853,0-8.788-0.713-8.788-3.256
					c0-2.544,3.935-4.606,8.788-4.606C382.286,221.598,386.22,223.661,386.22,226.204z"/>
				<path style="fill:#6C9FAD;" d="M379.754,227.433c-4.59,0-8.312-1.939-8.312-4.33c0-0.093,0.016-0.183,0.027-0.274
					c-1.733,0.841-2.824,2.04-2.824,3.376c0,2.544,3.934,3.256,8.788,3.256c4.854,0,8.788-0.713,8.788-3.256
					c0-0.122-0.017-0.241-0.035-0.36C384.661,226.814,382.347,227.433,379.754,227.433z"/>
			</g>
			<g>
				<path style="fill:#83B5C6;" d="M381.682,220.074c0,2.254-3.487,2.886-7.789,2.886c-4.301,0-7.789-0.632-7.789-2.886
					c0-2.254,3.487-4.082,7.789-4.082C378.195,215.992,381.682,217.819,381.682,220.074z"/>
				<path style="fill:#6C9FAD;" d="M375.951,221.163c-4.068,0-7.366-1.718-7.366-3.838c0-0.082,0.014-0.162,0.024-0.243
					c-1.536,0.745-2.503,1.808-2.503,2.992c0,2.254,3.487,2.886,7.788,2.886c4.302,0,7.789-0.632,7.789-2.886
					c0-0.108-0.015-0.213-0.031-0.319C380.3,220.614,378.249,221.163,375.951,221.163z"/>
			</g>
		</g>
	</g>
	<g>
		
			<ellipse transform="matrix(0.2279 -0.9737 0.9737 0.2279 88.0843 425.8394)" style="fill:#C2EFEF;" cx="312.541" cy="157.381" rx="19.373" ry="19.373"/>
		<g>
			<path style="fill:#FFFFFF;" d="M316.233,157.071c-0.251-0.108-0.377-0.33-0.377-0.553s0.126-0.446,0.377-0.553
				c3.346-1.433,5.69-4.755,5.69-8.625c0-1.201-0.234-2.345-0.645-3.401h-17.474c-0.411,1.055-0.645,2.2-0.645,3.401
				c0,3.871,2.345,7.192,5.69,8.625c0.252,0.108,0.377,0.33,0.377,0.553c0,0.223-0.126,0.445-0.377,0.553
				c-3.346,1.433-5.69,4.755-5.69,8.625c0,1.201,0.234,2.345,0.645,3.401h17.474c0.411-1.056,0.645-2.2,0.645-3.401
				C321.923,161.826,319.579,158.505,316.233,157.071z"/>
			<path style="fill:#FFFFFF;" d="M313.997,156.518L313.997,156.518c0-0.159,0.022-0.315,0.062-0.463
				c0.152-0.555,0.573-1.009,1.136-1.208c3.092-1.095,5.314-4.045,5.314-7.508c0-0.669-0.086-1.334-0.257-1.987H304.83
				c-0.171,0.653-0.257,1.318-0.257,1.987c0,3.463,2.222,6.412,5.314,7.508c0.424,0.15,0.767,0.444,0.976,0.817
				c0.143,0.255,0.223,0.547,0.223,0.854l0,0c0,0.176-0.026,0.346-0.075,0.507c-0.162,0.534-0.575,0.969-1.124,1.164
				c-3.092,1.095-5.314,4.045-5.314,7.508c0,0.669,0.086,1.334,0.257,1.987h15.424c0.171-0.653,0.257-1.318,0.257-1.987
				c0-3.463-2.222-6.412-5.314-7.508c-0.519-0.184-0.917-0.583-1.095-1.079C314.033,156.924,313.997,156.725,313.997,156.518z"/>
			<path style="fill:#4C3275;" d="M321.244,145.353h-17.406c-0.522,0-0.998-0.202-1.352-0.532c-0.389-0.362-0.632-0.879-0.632-1.452
				l0,0c0-0.366,0.099-0.71,0.273-1.004c0.345-0.586,0.982-0.98,1.711-0.98h17.406c0.658,0,1.241,0.32,1.602,0.814
				c0.24,0.328,0.382,0.732,0.382,1.17l0,0c0,0.511-0.193,0.977-0.51,1.328C322.355,145.1,321.829,145.353,321.244,145.353z"/>
			<path style="fill:#4C3275;" d="M321.244,167.683h-17.406c-0.522,0-0.998,0.202-1.352,0.532c-0.389,0.362-0.632,0.878-0.632,1.452
				l0,0c0,0.366,0.099,0.71,0.273,1.004c0.345,0.586,0.982,0.98,1.711,0.98h17.406c0.658,0,1.241-0.32,1.602-0.814
				c0.24-0.328,0.382-0.732,0.382-1.17l0,0c0-0.511-0.193-0.977-0.51-1.328C322.355,167.936,321.829,167.683,321.244,167.683z"/>
			<path style="fill:#7ABC9F;" d="M313.997,162.665v-6.147c0-0.159,0.022-0.315,0.062-0.463c0.152-0.555,0.573-1.009,1.137-1.208
				c2.596-0.919,4.56-3.153,5.129-5.893h-15.567c0.569,2.74,2.533,4.974,5.129,5.893c0.424,0.15,0.767,0.444,0.976,0.817
				c0.143,0.255,0.223,0.547,0.223,0.854c0,0,0,0,0,0l0.003,0v6.147h-5.89c-0.389,0.938-0.626,1.954-0.626,3.032
				c0,0.669,0.086,1.334,0.257,1.987h15.424c0.171-0.653,0.257-1.318,0.257-1.987c0-1.077-0.236-2.094-0.626-3.032H313.997z"/>
		</g>
	</g>
	<g>
		<circle style="fill:#C2EFEF;" cx="140.418" cy="201.395" r="19.373"/>
		<g>
			<path style="fill:#4C3275;" d="M151.8,190.933c0.908,2.145,1.064,4.813-0.242,6.838c-1.192,1.846-3.241,2.87-5.271,3.533
				c-2.342,0.764-4.87,0.898-7.11,1.971c-2.216,1.062-3.861,2.844-4.479,5.25c-0.672,2.614-0.268,5.798,1.625,7.836
				c0.446,0.48,0.977,0.835,1.552,1.113c0.831,0.131,1.676,0.218,2.544,0.218c9,0,16.296-7.296,16.296-16.296
				c0-5.201-2.445-9.822-6.239-12.806C151.005,189.345,151.46,190.13,151.8,190.933z"/>
			<path style="fill:#FFFFFF;" d="M142.856,210.676c0,1.1-0.892,1.992-1.992,1.992c-1.1,0-1.992-0.892-1.992-1.992
				c0-1.1,0.892-1.992,1.992-1.992C141.964,208.683,142.856,209.575,142.856,210.676z"/>
			<path style="fill:#FFFFFF;" d="M132.696,213.498c-1.294-3.43-0.054-7.6,2.464-10.159c1.284-1.305,2.929-2.208,4.669-2.747
				c1.743-0.54,3.585-0.646,5.338-1.166c1.606-0.476,3.292-1.225,4.291-2.634c1.156-1.629,1.095-3.85,0.507-5.68
				c-0.069-0.214-0.176-0.415-0.262-0.624c-0.988-1.727-2.516-3.214-4.088-4.281c-0.251-0.17-0.511-0.33-0.775-0.485
				c-1.408-0.397-2.888-0.624-4.423-0.624c-9,0-16.296,7.296-16.296,16.296c0,6.832,4.208,12.673,10.17,15.095
				c-0.251-0.38-0.469-0.784-0.66-1.201C133.268,214.729,132.939,214.143,132.696,213.498z"/>
			<path style="fill:#4C3275;" d="M144.258,191.645c0,1.1-0.892,1.992-1.992,1.992c-1.1,0-1.992-0.892-1.992-1.992
				c0-1.1,0.892-1.992,1.992-1.992C143.367,189.652,144.258,190.544,144.258,191.645z"/>
		</g>
	</g>
</g>
</svg>
