<svg width="400" height="446" viewBox="0 0 393 446" fill="none" xmlns="http://www.w3.org/2000/svg">
<g clip-path="url(#clip0_8_2)">
<path d="M392.808 210.881C392.669 212.933 392.487 214.986 392.264 217.012C392.166 218.038 392.042 219.052 391.917 220.079V220.092C389.827 236.988 385.162 252.923 377.64 266.845V266.859C377.013 268.029 376.359 269.174 375.676 270.306C370.314 279.412 363.657 287.557 355.607 294.426C354.883 295.044 354.159 295.65 353.42 296.228C346.359 301.887 338.281 306.598 329.144 310.151C328.071 310.572 326.999 310.98 325.898 311.362C325.898 311.362 325.898 311.362 325.884 311.362C304.868 318.731 278.488 320.217 246.149 313.612C246.121 313.612 246.094 313.598 246.065 313.598C244.951 313.374 243.837 313.164 242.737 312.994C212.751 307.941 190.454 319.231 166.776 330.705C165.913 331.113 165.063 331.534 164.2 331.942C135.662 345.693 104.646 358.864 55.4678 343.587C-20.4235 319.994 -5.11698 239.476 23.2537 182.064C23.6993 181.143 24.1591 180.235 24.6189 179.328C30.6918 167.367 37.2928 156.484 43.6852 147.457C48.796 140.22 52.8776 132.64 56.2482 124.917C56.6939 123.903 57.1254 122.891 57.5439 121.864C74.4373 80.9005 72.9754 36.6481 103.031 19.3573C103.797 18.8973 104.591 18.4629 105.398 18.0675C109.646 15.9221 114.479 14.2914 120.022 13.2254C134.799 10.3828 147.362 12.9224 158.309 18.7648C159.325 19.3172 160.329 19.8831 161.304 20.489C184.325 34.4371 200.106 63.0048 214.84 85.6634C215.37 86.5055 215.913 87.3209 216.443 88.1374C228.17 105.888 239.354 119.376 253.17 118.1C255.97 117.837 258.797 117.652 261.637 117.534C262.626 117.495 263.601 117.468 264.589 117.441C289.172 116.862 315.062 121.455 337.11 131.14C338.03 131.534 338.934 131.943 339.826 132.364C359.951 141.733 376.581 155.47 385.62 173.538C386.024 174.327 386.4 175.129 386.775 175.932C391.457 186.235 393.699 197.894 392.808 210.881Z" fill="#E4EBF7"/>
<path d="M322.738 90.9265C319.772 92.2955 316.833 93.4005 313.908 94.2693C312.877 94.5723 311.861 94.8485 310.844 95.0847C259.897 107.362 217.822 47.2523 214.298 18.8171C210.733 -9.97341 250.077 -1.31519 287.835 15.5145C289.019 16.0413 290.188 16.5671 291.359 17.1062C292.571 17.672 293.796 18.2379 295.008 18.8171C335.635 38.1207 378.88 65.0566 322.738 90.9265Z" fill="#E4EBF7"/>
<path opacity="0.62" d="M246.15 313.611C246.122 313.611 246.095 313.597 246.067 313.597C244.952 313.373 243.838 313.163 242.738 312.992C234.967 295.281 223.672 277.437 208.268 270.977C197.767 266.569 186.248 267.937 174.034 275.069C138.226 295.978 110.553 307.755 91.9179 297.229C74.119 287.176 67.1266 256.634 70.5114 203.855C72.6559 170.393 67.8646 143.944 56.2494 124.917C56.6951 123.903 57.1266 122.891 57.5451 121.864C70.2614 141.483 75.5397 169.011 73.2831 204.013C69.9679 255.714 76.5276 285.466 93.3527 294.966C111.793 305.401 142.336 290.493 172.572 272.834C185.608 265.215 198.004 263.78 209.396 268.57C226.22 275.635 238.17 294.939 246.15 313.611Z" fill="white"/>
<path opacity="0.62" d="M166.778 330.704C165.915 331.112 165.065 331.533 164.202 331.941C162.391 326.151 159.369 320.558 154.41 316.848C147.237 311.479 137.043 310.808 124.104 314.847C95.4548 323.808 73.6026 322.966 59.1179 312.36C42.92 300.504 36.0125 276.304 38.5885 240.461C40.469 214.275 33.0733 195.392 23.2537 182.062C23.6993 181.141 24.1591 180.233 24.6189 179.325C35.2037 193.115 43.3657 212.907 41.3732 240.645C38.8526 275.555 45.4124 298.99 60.8297 310.28C74.521 320.321 95.5232 321.018 123.225 312.346C137.125 308.004 148.197 308.833 156.15 314.794C161.513 318.821 164.8 324.664 166.778 330.704Z" fill="white"/>
<path opacity="0.62" d="M296.387 218.302C291.68 251.963 297.042 278.148 312.334 296.149C317.571 302.32 323.462 306.834 329.145 310.15C328.072 310.571 327 310.979 325.899 311.361C325.899 311.361 325.899 311.361 325.885 311.361C320.564 308.031 315.133 303.637 310.202 297.834C294.381 279.254 288.81 252.384 293.628 217.96C299.882 173.26 319.561 146.522 337.11 131.14C338.03 131.534 338.934 131.943 339.826 132.364C322.46 147.286 302.64 173.642 296.387 218.302Z" fill="white"/>
<path opacity="0.62" d="M336.819 229.737C332.794 255.291 336.15 274.542 346.833 286.925C349.619 290.149 352.655 292.596 355.607 294.426C354.883 295.044 354.159 295.65 353.42 296.228C350.468 294.307 347.459 291.821 344.673 288.584C333.475 275.596 329.91 255.674 334.06 229.343C338.294 202.591 356.051 183.419 385.62 173.538C386.024 174.327 386.4 175.129 386.775 175.933C357.738 185.485 340.942 203.565 336.819 229.737Z" fill="white"/>
<path opacity="0.62" d="M392.264 217.012C392.166 218.038 392.041 219.052 391.916 220.079V220.092C386.039 222.843 381.665 226.803 378.852 231.922C373.128 242.343 374.688 255.949 377.64 266.845C377.626 266.859 377.626 266.859 377.64 266.859C377.013 268.029 376.359 269.174 375.676 270.306C372.111 258.608 369.687 242.897 376.373 230.712C379.729 224.606 385.05 220.027 392.264 217.012Z" fill="white"/>
<path opacity="0.62" d="M264.591 117.441C263.1 123.705 260.956 130.785 257.892 137.798C246.596 163.668 227.892 177.26 203.685 177.26C202.724 177.26 201.778 177.247 200.803 177.208C167.85 175.773 148.909 127.245 130.594 80.3079C121.61 57.3062 112.906 35.0163 103.031 19.3574C103.797 18.8973 104.591 18.4629 105.398 18.0675C115.482 34.0027 124.2 56.3594 133.197 79.4001C151.206 125.535 169.826 173.235 200.94 174.577C240.369 176.288 255.759 141.194 261.636 117.534C262.628 117.494 263.601 117.467 264.591 117.441Z" fill="white"/>
<path opacity="0.62" d="M216.443 88.1374C214.061 88.5451 211.429 88.8079 208.644 88.8079C202.822 88.8079 196.291 87.6495 189.828 84.163C172.808 74.978 162.237 53.0167 158.309 18.7648C159.325 19.3173 160.329 19.8831 161.304 20.4891C165.286 52.6881 175.314 73.2949 191.206 81.874C199.521 86.3607 208.114 86.6381 214.84 85.6634C215.371 86.5055 215.915 87.3209 216.443 88.1374Z" fill="white"/>
<path opacity="0.62" d="M313.908 94.2692C312.877 94.5722 311.861 94.8485 310.844 95.0846C303.49 87.821 295.523 73.2146 293.615 43.8048C292.892 32.5936 290.76 23.2637 287.836 15.5133C289.02 16.0402 290.189 16.5659 291.36 17.105C293.923 24.6059 295.733 33.3822 296.403 43.6455C298.351 73.8206 306.68 87.7942 313.908 94.2692Z" fill="white"/>
<path d="M194.01 446C256.609 446 307.355 441.175 307.355 435.223C307.355 429.271 256.609 424.446 194.01 424.446C131.412 424.446 80.6658 429.271 80.6658 435.223C80.6658 441.175 131.412 446 194.01 446Z" fill="#E4EBF7"/>
<path d="M58.5967 179.116C58.5967 179.116 60.575 180.392 64.1261 182.339C75.7554 188.734 104.251 202.38 135.463 202.209C136.452 202.209 137.441 202.182 138.429 202.143C139.543 202.103 140.658 202.051 141.772 201.972C144.766 201.761 147.761 201.419 150.782 200.932L154.695 172.563L144.334 173.036L141.492 173.168L139.807 173.247L112.342 174.523L70.8521 162.049L64.9183 160.259C64.9207 160.259 57.4967 165.168 58.5967 179.116Z" fill="url(#paint0_linear_8_2)"/>
<path d="M58.5967 179.116C58.5967 179.116 60.575 180.392 64.1261 182.339C64.5434 174.641 68.0402 167.036 70.8533 162.049L64.9195 160.259C64.9195 160.259 57.4967 165.168 58.5967 179.116Z" fill="#FAFCFF" stroke="#0C6BF4" stroke-width="1.1813" stroke-miterlimit="10"/>
<path opacity="0.47" d="M138.429 202.143C139.543 202.103 140.657 202.051 141.772 201.972C144.766 201.761 147.761 201.419 150.782 200.932L154.695 172.563L144.334 173.036L141.492 173.168C140.726 175.997 140.057 179.037 139.528 182.339C138.388 189.379 138.11 196.011 138.429 202.143Z" fill="#3150BC"/>
<path d="M86.4911 150.305L49.3722 155.921L57.3113 202.766L94.4302 197.151L86.4911 150.305Z" fill="#BAC1CC"/>
<path d="M90.6941 152.826H53.1016V200.27H90.6941V152.826Z" fill="#EDF1F9"/>
<path d="M65.5102 162.842C65.5102 164.795 63.8349 166.379 61.7669 166.379C59.7002 166.379 58.0237 164.796 58.0237 162.842C58.0237 160.889 59.699 159.305 61.7669 159.305C63.8349 159.305 65.5102 160.888 65.5102 162.842Z" fill="#F4D242"/>
<path d="M80.193 174.054H59.1272C58.5189 174.054 58.0249 173.588 58.0249 173.013C58.0249 172.438 58.5189 171.971 59.1272 171.971H80.193C80.8014 171.971 81.2954 172.438 81.2954 173.013C81.2954 173.588 80.8014 174.054 80.193 174.054Z" fill="#BAC1CC"/>
<path d="M85.1128 179.537H59.1272C58.5189 179.537 58.0249 179.07 58.0249 178.496C58.0249 177.921 58.5189 177.454 59.1272 177.454H85.1128C85.7224 177.454 86.2152 177.921 86.2152 178.496C86.2152 179.07 85.7224 179.537 85.1128 179.537Z" fill="#BAC1CC"/>
<path d="M85.1128 184.622H59.1272C58.5189 184.622 58.0249 184.155 58.0249 183.58C58.0249 183.004 58.5189 182.539 59.1272 182.539H85.1128C85.7224 182.539 86.2152 183.006 86.2152 183.58C86.2152 184.156 85.7224 184.622 85.1128 184.622Z" fill="#BAC1CC"/>
<path d="M85.1128 189.406H59.1272C58.5189 189.406 58.0249 188.939 58.0249 188.364C58.0249 187.79 58.5189 187.323 59.1272 187.323H85.1128C85.7224 187.323 86.2152 187.79 86.2152 188.364C86.2152 188.939 85.7224 189.406 85.1128 189.406Z" fill="#BAC1CC"/>
<path d="M51.8731 170.707C51.8731 170.707 59.9396 169.887 60.1718 171.97C60.4041 174.053 55.2968 174.602 55.2968 174.602C55.2968 174.602 62.7243 174.983 62.9565 176.547C63.1888 178.111 55.2968 179.537 55.2968 179.537C55.2968 179.537 61.6219 179.493 61.767 181.016C61.912 182.539 55.4123 183.58 55.4123 183.58C55.4123 183.58 60.4029 183.813 60.5196 185.13C60.6351 186.445 52.3954 188.858 50.7707 187.323C49.1461 185.788 51.3508 182.934 49.4939 181.236C47.637 179.537 47.637 176.796 48.6816 175.589C49.7262 174.383 46.2459 170.752 51.8731 170.707Z" fill="#FEB19E"/>
<path d="M97.4991 306.641L75.7967 299.646L78.3362 292.613C79.3088 289.919 82.4178 288.476 85.2697 289.395L96.6337 293.058C99.4845 293.977 101.012 296.915 100.04 299.608L97.4991 306.641ZM79.455 297.948L95.7035 303.186L97.3128 298.73C97.7726 297.458 97.0499 296.069 95.7035 295.636L84.3395 291.972C82.9931 291.538 81.5229 292.221 81.0643 293.493L79.455 297.948Z" fill="#593131"/>
<path d="M93.9044 348.449L48.0167 333.657C43.6038 332.235 41.2459 327.701 42.7514 323.531L52.5864 296.297L114.457 316.242L104.622 343.475C103.116 347.645 98.3173 349.872 93.9044 348.449Z" fill="#593131"/>
<path d="M110.332 320.304L80.8674 317.008C79.8311 316.892 78.8313 316.57 77.9353 316.063L52.4838 301.656C51.1964 300.928 50.6234 299.449 51.1079 298.108L53.5531 291.336C54.1202 289.765 55.9287 288.926 57.5911 289.462L114.178 307.703C115.841 308.238 116.729 309.947 116.162 311.519L113.717 318.29C113.232 319.631 111.821 320.471 110.332 320.304Z" fill="#754343"/>
<path d="M100.975 281.74C100.975 281.74 105.03 292.291 102.767 293.854C100.503 295.416 96.3248 289.577 95.0197 291.797C93.7146 294.017 97.9789 298.212 92.1477 298.541C86.3154 298.869 81.0926 294.676 81.7021 288.837C82.3116 282.998 87.2986 279.364 87.2857 277.603L88.4918 273.951L101.897 278.227L100.975 281.74Z" fill="#FEB19E"/>
<path d="M86.2152 277.279L102.413 282.175L105.825 275.425L105.88 275.306L121.966 243.554L138.943 239.62L146.227 237.936L147.411 237.659L156.06 235.659L163.149 234.014L154.207 206.143C154.207 206.143 151.172 206.591 146.436 207.801C144.751 208.235 142.842 208.761 140.781 209.406C140.252 209.576 139.694 209.748 139.138 209.932C137.995 210.3 136.812 210.721 135.587 211.169C126.576 214.458 115.851 219.696 107.147 227.775C94.1803 239.828 89.1249 258.855 87.2586 269.462C87.2303 269.607 87.2032 269.752 87.189 269.896C86.4109 274.398 86.2152 277.279 86.2152 277.279Z" fill="url(#paint1_linear_8_2)"/>
<path opacity="0.47" d="M140.784 209.407C140.254 209.577 139.697 209.749 139.14 209.933C140.728 221.71 144.293 231.197 147.413 237.658L156.062 235.658L163.151 234.013L154.21 206.142C154.21 206.142 151.174 206.59 146.438 207.8C144.753 208.236 142.845 208.762 140.784 209.407Z" fill="#3150BC"/>
<path d="M87.1902 269.897C86.4109 274.397 86.2152 277.279 86.2152 277.279L102.413 282.175L105.825 275.424L105.88 275.306C97.0652 273.937 90.6729 271.503 87.1902 269.897Z" fill="#9EB2EF"/>
<path d="M352.393 176.439L337.563 179.349C336.056 179.644 334.582 178.731 334.269 177.307L327.649 147.191C327.336 145.767 328.303 144.375 329.81 144.079L344.64 141.169C346.147 140.874 347.62 141.788 347.934 143.211L354.554 173.327C354.866 174.751 353.898 176.144 352.393 176.439Z" fill="#23406D"/>
<path d="M351.206 170.127L335.992 173.112L330.571 148.448C330.354 147.46 331.025 146.494 332.071 146.289L343.499 144.046C344.544 143.841 345.568 144.475 345.785 145.463L351.206 170.127Z" fill="#A8AFBA"/>
<path d="M321.516 174.954L325.259 173.727C325.259 173.727 328.373 175.273 333.344 173.099L330.327 159.372C330.327 159.372 335.53 155.956 335.444 153.9C335.357 151.844 325.173 152.337 321.082 161.713L316.556 163.522L321.516 174.954Z" fill="#FEB19E"/>
<path d="M322.626 179.116C322.626 179.116 320.649 180.392 317.097 182.34C305.468 188.734 276.972 202.381 245.76 202.209C244.771 202.209 243.783 202.182 242.794 202.143C241.68 202.103 240.566 202.051 239.451 201.972C236.457 201.761 233.462 201.419 230.441 200.932L226.526 172.563L236.888 173.036L239.73 173.168L241.414 173.247L268.88 174.523L310.37 162.049L316.304 160.259C316.304 160.259 323.727 165.168 322.626 179.116Z" fill="url(#paint2_linear_8_2)"/>
<path opacity="0.47" d="M242.794 202.143C241.68 202.103 240.566 202.051 239.451 201.972C236.457 201.761 233.462 201.419 230.441 200.932L226.526 172.563L236.888 173.036L239.73 173.168C240.496 175.997 241.164 179.037 241.694 182.339C242.836 189.379 243.114 196.011 242.794 202.143Z" fill="#3150BC"/>
<path d="M316.303 160.259L310.37 162.049C313.183 167.036 316.68 174.641 317.097 182.34C320.648 180.392 322.626 179.116 322.626 179.116C323.727 165.168 316.303 160.259 316.303 160.259Z" fill="#9EB2EF"/>
<path d="M299.162 288.544C299.553 289.408 299.127 290.407 298.212 290.775L279.263 298.407L277.852 295.278L296.801 287.646C297.716 287.277 298.773 287.679 299.162 288.544Z" fill="#A1A7AF"/>
<path d="M255.497 306.123C258.315 312.369 265.953 315.271 272.552 312.615C279.151 309.957 282.223 302.74 279.404 296.495C276.591 290.26 268.953 287.357 262.355 290.015C255.756 292.672 252.684 299.889 255.497 306.123ZM277.059 297.438C279.326 302.462 276.851 308.251 271.546 310.387C266.242 312.523 260.108 310.202 257.841 305.178C255.58 300.167 258.05 294.366 263.354 292.23C268.659 290.094 274.798 292.427 277.059 297.438Z" fill="#BAC1CC"/>
<path d="M280.023 279.872L281.324 283.57C281.324 283.57 281.66 287.621 281.472 289.648C281.283 291.674 279.697 295.097 281.788 295.584C283.88 296.071 283.432 300.39 287.949 299.416C292.467 298.443 299.309 294.549 299.141 291.079C298.973 287.609 293.584 281.339 293.584 281.339L292.796 278.052L280.023 279.872Z" fill="#FEB19E"/>
<path d="M295.009 277.279L278.811 282.174L275.399 275.424L275.344 275.306L259.258 243.554L242.281 239.62L234.997 237.935L233.813 237.659L225.164 235.659L218.075 234.013L227.017 206.143C227.017 206.143 230.052 206.591 234.788 207.8C236.473 208.235 238.382 208.761 240.443 209.405C240.972 209.576 241.528 209.747 242.086 209.931C243.228 210.3 244.412 210.721 245.637 211.169C254.648 214.458 265.373 219.695 274.077 227.774C287.044 239.828 292.099 258.855 293.965 269.462C293.994 269.606 294.021 269.751 294.035 269.896C294.813 274.397 295.009 277.279 295.009 277.279Z" fill="url(#paint3_linear_8_2)"/>
<path opacity="0.47" d="M240.441 209.407C240.97 209.577 241.526 209.749 242.084 209.933C240.496 221.71 236.931 231.197 233.811 237.658L225.162 235.658L218.073 234.013L227.014 206.142C227.014 206.142 230.05 206.59 234.786 207.8C236.471 208.236 238.379 208.762 240.441 209.407Z" fill="#3150BC"/>
<path d="M275.343 275.305L275.398 275.423L278.81 282.173L295.008 277.278C295.008 277.278 294.813 274.396 294.033 269.896C290.551 271.502 284.159 273.937 275.343 275.305Z" fill="#9EB2EF"/>
<path d="M135.492 74.8309C135.492 74.8309 128.33 71.8613 127.738 69.3785C127.147 66.8945 126.14 61.1847 124.086 60.8049C122.032 60.4251 123.219 69.6313 123.219 69.6313C123.219 69.6313 122.671 60.884 119.91 59.9673C117.149 59.0505 119.455 70.7853 119.168 70.3899C118.882 69.9944 117.565 61.5 116.093 61.6637C114.62 61.8286 114.107 70.3431 116.2 74.5101C118.293 78.6772 118.957 82.3797 118.957 82.3797L131.917 83.1873L135.492 74.8309Z" fill="#F49D8C"/>
<path d="M132.796 83.1383C132.796 83.1383 139.102 79.5728 140.885 71.2343C142.081 65.6392 136.541 70.4067 134.732 74.3799C134.732 74.3799 125.29 73.8508 123.667 82.5435L132.796 83.1383Z" fill="#FEB19E"/>
<path d="M119.558 135.298C125.77 147.496 136.048 156.931 144.098 162.97C144.278 163.102 144.446 163.22 144.613 163.352C144.683 163.405 144.738 163.445 144.807 163.497C151.214 168.208 156.075 170.708 156.075 170.708L174.487 147.351L168.401 143.535L165.727 141.851L164.167 140.877L139.153 125.193L135.406 90.0332L134.613 82.6114L117.608 82.0188C117.608 82.0188 116.716 84.9661 115.797 89.7169C113.75 100.295 111.675 119.796 119.558 135.298Z" fill="url(#paint4_linear_8_2)"/>
<path opacity="0.47" d="M156.076 170.707L174.488 147.35L168.402 143.534L165.728 141.85L164.168 140.876C158.848 143.692 150.617 149.996 144.809 163.496C151.215 168.208 156.076 170.707 156.076 170.707Z" fill="#3150BC"/>
<path d="M115.794 89.7102C123.356 89.0497 130.388 89.474 135.403 90.0366L134.616 82.607L117.615 82.0155C117.615 82.0155 116.71 84.9662 115.794 89.7102Z" fill="#9EB2EF"/>
<path d="M139.858 34.2811C139.858 28.8554 135.202 24.4567 129.46 24.4567C123.717 24.4567 119.041 28.8899 119.061 34.3156C119.071 37.0101 120.228 39.4484 122.097 41.2173C123.551 42.5951 124.615 44.296 125.152 46.1729L125.99 49.1024H132.806L133.6 46.3278C134.15 44.4096 135.248 42.6787 136.749 41.2852C138.669 39.5041 139.858 37.0246 139.858 34.2811Z" fill="#F4D242"/>
<path d="M127.097 36.5078C126.351 36.5078 125.744 37.0814 125.744 37.7865C125.744 38.4916 126.351 39.0652 127.097 39.0652C127.386 39.0652 127.652 38.9795 127.873 38.8335V49.1035H128.45V37.7865C128.45 37.0814 127.843 36.5078 127.097 36.5078ZM127.097 38.5194C126.669 38.5194 126.321 38.1908 126.321 37.7865C126.321 37.3822 126.669 37.0536 127.097 37.0536C127.525 37.0536 127.873 37.3822 127.873 37.7865C127.872 38.1908 127.524 38.5194 127.097 38.5194Z" fill="white"/>
<path d="M131.122 37.6216C130.376 37.6216 129.769 38.1952 129.769 38.9003L129.704 49.1046H130.281L130.346 39.9474C130.566 40.0933 130.833 40.1791 131.122 40.1791C131.868 40.1791 132.475 39.6054 132.475 38.9003C132.475 38.1952 131.868 37.6216 131.122 37.6216ZM131.122 39.6333C130.694 39.6333 130.346 39.3047 130.346 38.9003C130.346 38.496 130.694 38.1674 131.122 38.1674C131.55 38.1674 131.898 38.496 131.898 38.9003C131.898 39.3035 131.55 39.6333 131.122 39.6333Z" fill="white"/>
<path d="M129.417 52.7927C127.457 52.7927 125.867 51.2912 125.867 49.4388V48.6558H132.967V49.4388C132.967 51.2912 131.378 52.7927 129.417 52.7927Z" fill="#383838"/>
<path d="M132.986 50.2108H125.826C125.675 50.2108 125.553 50.0949 125.553 49.9523C125.553 49.8098 125.675 49.6939 125.826 49.6939H132.986C133.137 49.6939 133.259 49.8098 133.259 49.9523C133.259 50.096 133.137 50.2108 132.986 50.2108Z" fill="#838689"/>
<path d="M133.041 51.3035H125.88C125.729 51.3035 125.608 51.1877 125.608 51.0462C125.608 50.9036 125.731 50.7889 125.88 50.7889H133.041C133.192 50.7889 133.314 50.9047 133.314 51.0462C133.314 51.1877 133.191 51.3035 133.041 51.3035Z" fill="#838689"/>
<path d="M116.839 33.8467H114.11C113.82 33.8467 113.585 33.625 113.585 33.351C113.585 33.077 113.82 32.8553 114.11 32.8553H116.839C117.129 32.8553 117.363 33.077 117.363 33.351C117.363 33.625 117.129 33.8467 116.839 33.8467Z" fill="#F4D242"/>
<path d="M117.675 29.233L115.256 28.04C114.998 27.913 114.899 27.6134 115.034 27.3706C115.168 27.1277 115.485 27.0342 115.742 27.1601L118.162 28.353C118.419 28.48 118.518 28.7796 118.384 29.0225C118.249 29.2653 117.932 29.36 117.675 29.233Z" fill="#F4D242"/>
<path d="M117.85 37.4079L115.431 38.6008C115.174 38.7278 115.075 39.0274 115.208 39.2703C115.343 39.5131 115.66 39.6067 115.917 39.4808L118.336 38.2878C118.593 38.1608 118.692 37.8612 118.559 37.6184C118.425 37.3756 118.107 37.282 117.85 37.4079Z" fill="#F4D242"/>
<path d="M120.62 25.4102L118.69 23.5868C118.485 23.393 118.485 23.0789 118.69 22.885C118.895 22.6912 119.227 22.6912 119.433 22.885L121.363 24.7085C121.568 24.9023 121.568 25.2164 121.363 25.4102C121.157 25.604 120.825 25.604 120.62 25.4102Z" fill="#F4D242"/>
<path d="M123.959 22.9831L123.017 20.5626C122.916 20.3053 123.056 20.0202 123.328 19.9266C123.6 19.8319 123.902 19.9645 124.001 20.2207L124.943 22.6411C125.043 22.8984 124.903 23.1836 124.632 23.2772C124.359 23.3718 124.058 23.2404 123.959 22.9831Z" fill="#F4D242"/>
<path d="M142.189 33.5171H144.918C145.208 33.5171 145.443 33.2954 145.443 33.0214C145.443 32.7474 145.208 32.5257 144.918 32.5257H142.189C141.899 32.5257 141.664 32.7474 141.664 33.0214C141.664 33.2943 141.899 33.5171 142.189 33.5171Z" fill="#F4D242"/>
<path d="M141.353 28.9022L143.772 27.7092C144.029 27.5822 144.128 27.2826 143.995 27.0398C143.861 26.7969 143.544 26.7034 143.287 26.8303L140.867 28.0233C140.61 28.1503 140.511 28.4499 140.645 28.6928C140.779 28.9356 141.096 29.0292 141.353 28.9022Z" fill="#F4D242"/>
<path d="M141.177 37.0781L143.597 38.2711C143.854 38.398 143.953 38.6977 143.819 38.9405C143.685 39.1833 143.368 39.2769 143.111 39.1499L140.692 37.9569C140.435 37.83 140.336 37.5303 140.469 37.2875C140.603 37.0447 140.92 36.9511 141.177 37.0781Z" fill="#F4D242"/>
<path d="M138.408 25.0793L140.338 23.2559C140.543 23.0621 140.543 22.748 140.338 22.5553C140.133 22.3615 139.8 22.3615 139.595 22.5553L137.665 24.3787C137.46 24.5725 137.46 24.8866 137.665 25.0804C137.87 25.2731 138.203 25.2731 138.408 25.0793Z" fill="#F4D242"/>
<path d="M135.069 22.6532L136.011 20.2328C136.111 19.9755 135.971 19.6903 135.7 19.5968C135.428 19.5021 135.126 19.6346 135.027 19.8908L134.086 22.3113C133.986 22.5686 134.125 22.8537 134.397 22.9473C134.668 23.042 134.97 22.9094 135.069 22.6532Z" fill="#F4D242"/>
<path d="M128.936 21.8892V19.3106C128.936 19.0365 129.171 18.8149 129.461 18.8149C129.751 18.8149 129.986 19.0365 129.986 19.3106V21.8892C129.986 22.1632 129.751 22.3849 129.461 22.3849C129.171 22.3849 128.936 22.1621 128.936 21.8892Z" fill="#F4D242"/>
<path d="M246.062 74.5024C246.062 74.5024 253.224 71.5327 253.816 69.0499C254.408 66.5659 255.415 60.8562 257.468 60.4764C259.522 60.0965 258.335 69.3028 258.335 69.3028C258.335 69.3028 258.883 60.5554 261.644 59.6387C264.404 58.722 262.099 70.4567 262.386 70.0613C262.672 69.6659 263.989 61.1714 265.462 61.3363C266.934 61.5011 267.447 70.0156 265.354 74.1827C263.262 78.3497 262.597 82.0523 262.597 82.0523L249.638 82.8598L246.062 74.5024Z" fill="#F49D8C"/>
<path d="M248.758 82.8097C248.758 82.8097 242.452 79.2441 240.669 70.9056C239.474 65.3106 245.014 70.078 246.822 74.0512C246.822 74.0512 256.265 73.5221 257.887 82.2148L248.758 82.8097Z" fill="#FEB19E"/>
<path d="M261.665 135.298C255.453 147.496 245.175 156.931 237.125 162.97C236.944 163.102 236.777 163.22 236.61 163.352C236.54 163.405 236.485 163.445 236.416 163.497C230.009 168.208 225.148 170.708 225.148 170.708L206.736 147.351L212.823 143.535L215.497 141.851L217.057 140.878L242.071 125.193L245.818 90.0333L246.611 82.6115L263.617 82.0189C263.617 82.0189 264.508 84.9662 265.428 89.7169C267.474 100.295 269.549 119.796 261.665 135.298Z" fill="url(#paint5_linear_8_2)"/>
<path opacity="0.47" d="M225.148 170.707L206.736 147.35L212.823 143.534L215.497 141.85L217.057 140.876C222.378 143.692 230.608 149.996 236.417 163.496C230.009 168.208 225.148 170.707 225.148 170.707Z" fill="#3150BC"/>
<path d="M246.608 82.607L245.821 90.0366C250.838 89.474 257.868 89.0497 265.43 89.7102C264.514 84.9662 263.61 82.0155 263.61 82.0155L246.608 82.607Z" fill="#9EB2EF"/>
<path d="M249.194 48.2304C255.396 48.2304 260.423 43.4807 260.423 37.6217C260.423 31.7628 255.396 27.0131 249.194 27.0131C242.993 27.0131 237.966 31.7628 237.966 37.6217C237.966 43.4807 242.993 48.2304 249.194 48.2304Z" fill="#EFA245"/>
<path d="M249.194 25.6965C242.223 25.6965 236.572 31.0354 236.572 37.6206C236.572 44.207 242.223 49.5459 249.194 49.5459C256.164 49.5459 261.816 44.207 261.816 37.6206C261.816 31.0354 256.166 25.6965 249.194 25.6965ZM249.194 47.532C248.11 47.532 247.063 47.376 246.078 47.0853C242.796 46.1185 240.2 43.6668 239.177 40.5646C238.87 39.6345 238.704 38.6454 238.704 37.6206C238.704 37.2787 238.723 36.9412 238.758 36.6081C239.188 32.6149 242.138 29.3155 246.077 28.156C247.062 27.8664 248.109 27.7093 249.193 27.7093C254.977 27.7093 259.682 32.1548 259.682 37.6195C259.685 43.0865 254.978 47.532 249.194 47.532Z" fill="#F4D242"/>
<path d="M250.04 36.871V33.9939C251.478 34.2278 251.478 35.071 251.478 35.3773H253.169C253.169 33.6998 252.016 32.6182 250.04 32.3832V31.2325H248.349V32.3832C246.374 32.6171 245.22 33.6987 245.22 35.3773C245.22 37.0548 246.373 38.1375 248.349 38.3714V41.2486C246.911 41.0135 246.911 40.1715 246.911 39.8651H245.22C245.22 41.5426 246.373 42.6253 248.349 42.8592V44.0099H250.04V42.8592C252.014 42.6253 253.169 41.5438 253.169 39.8651C253.169 38.1865 252.016 37.1049 250.04 36.871ZM246.912 35.3773C246.912 35.071 246.912 34.2278 248.35 33.9939V36.7607C246.912 36.5268 246.912 35.6836 246.912 35.3773ZM250.04 41.2486V38.4817C251.478 38.7167 251.478 39.5588 251.478 39.8651C251.478 40.1715 251.478 41.0147 250.04 41.2486Z" fill="#F4D242"/>
<path d="M190.162 417.051H163.7C163.7 417.051 156.137 328.889 158.825 251.91H192.251L197.158 318.62C197.158 318.62 190.858 383.167 190.162 417.051Z" fill="#1B3151"/>
<path d="M184.033 417.097C181.065 377.693 189.572 295.695 189.657 294.872L191.044 295C190.957 295.824 182.464 377.71 185.423 417.004L184.033 417.097Z" fill="#23406D"/>
<path d="M189.466 432.065C189.48 433.46 189.382 434.539 189.118 435.039C187.836 437.448 144.661 436.895 142.112 436.789C139.884 436.697 140.218 429.973 150.692 426.105C152.21 425.539 153.95 425.039 155.929 424.618C166.374 422.42 166.026 417.051 166.026 417.051L187.725 417.104C187.725 417.104 189.396 426.814 189.466 432.065Z" fill="url(#paint6_linear_8_2)"/>
<path d="M189.466 432.065C189.48 433.46 189.382 434.539 189.118 435.039C187.836 437.448 144.661 436.895 142.112 436.789C139.884 436.697 140.218 429.973 150.692 426.105C153.241 426.565 155.984 428.447 157.084 434C157.084 434 179.535 434.236 189.466 432.065Z" fill="#9EB2EF"/>
<path d="M238.045 434.973C234.772 436.342 223.56 436.763 216.917 436.052C214.715 435.828 213.017 435.459 212.279 434.973C209.312 432.999 212.446 417.103 212.446 417.103H228.462C228.462 417.103 228.114 422.972 232.306 424.787C233.671 425.38 235.217 426.471 236.525 427.748C236.609 427.827 236.693 427.906 236.762 427.985C237.696 428.893 238.183 429.617 238.183 429.617C239.8 431.801 240.301 434.039 238.045 434.973Z" fill="url(#paint7_linear_8_2)"/>
<path d="M238.045 434.973C234.772 436.342 223.56 436.763 216.917 436.052C216.22 428.236 223.017 424.446 228.63 424.446C232.25 424.446 234.939 426.275 236.526 427.749C236.61 427.828 236.694 427.907 236.763 427.986C237.697 428.894 238.184 429.618 238.184 429.618C239.8 431.801 240.301 434.039 238.045 434.973Z" fill="#9EB2EF"/>
<path d="M184.727 255.065L207.571 417.051H232.308L227.069 276.583C227.069 276.583 229.109 264.575 228.698 251.91L184.727 255.065Z" fill="#23406D"/>
<path d="M226.164 417.072L224.772 417.029C226.4 371.756 218.123 277.908 218.039 276.966C219.421 262.692 217.268 255.073 217.246 254.997L218.59 254.647C218.68 254.962 220.834 262.542 219.427 276.971C219.51 277.799 227.795 371.723 226.164 417.072Z" fill="#38659B"/>
<path d="M151.806 215.724C151.806 215.724 146.813 228.882 134.278 221.974C121.743 215.065 136.225 184.622 136.225 184.622L151.806 215.724Z" fill="url(#paint8_linear_8_2)"/>
<path d="M141.59 178.139C141.59 178.139 140.371 174.274 146.291 173.122C152.21 171.97 154.734 175.507 156.301 178.879L141.59 178.139Z" fill="#FEB19E"/>
<path d="M229.66 204.302C225.147 214.907 225.468 217.145 225.468 217.145L228.699 251.91C228.699 251.91 175.9 268.688 158.824 251.91L157.152 223.856L156.302 209.578L156.135 208.815L149.477 178.537L156.301 178.879C155.118 176.339 153.376 173.681 150.048 173.036C152.193 167.957 157.165 157.483 163.112 153.377C171.093 147.877 187.54 141.219 211.579 147.707C235.594 154.206 234.159 193.696 229.66 204.302Z" fill="url(#paint9_linear_8_2)"/>
<path d="M225.468 217.144C225.468 217.144 224.744 235.685 206.874 240.725C189.005 245.764 174.73 225.593 171.707 223.973C169.2 222.644 160.175 223.513 157.152 223.855L156.302 209.577L156.135 208.814L171.205 206.143L194.003 226.474L225.468 217.144Z" fill="#3150BC"/>
<path d="M209.66 183.704C209.66 183.704 190.525 189.295 164.164 183.704V208.322C164.164 208.322 192.947 214.079 214.303 208.322L209.66 183.704Z" fill="#A9D0FF"/>
<path opacity="0.47" d="M214.303 168.383C214.303 168.383 201.151 216.217 179.408 200.947L173.308 207.347L203.654 225.153L214.303 168.383Z" fill="#3150BC"/>
<path d="M196.98 140.38C196.98 140.38 203.749 130.849 200.872 119.993C197.997 109.137 191.555 111.605 191.555 111.605C191.555 111.605 196.255 104.532 188.246 101.077C180.238 97.6232 174.611 100.419 180.273 102.393C180.273 102.393 168.574 102.393 161.785 109.301C154.995 116.209 150.12 109.136 148.205 110.617C146.291 112.097 149.858 116.879 152.906 117.36C152.906 117.36 145.594 115.88 145.072 117.36C144.549 118.84 149.216 128.207 159.836 128.042C159.836 128.042 158.478 134.117 169.271 140.379C180.064 146.641 196.98 140.38 196.98 140.38Z" fill="url(#paint10_linear_8_2)"/>
<path d="M200.872 148.943C200.872 148.943 200.468 150.378 199.605 152.352C197.585 156.917 193.045 164.444 185.022 164.155C182.279 164.063 181.373 161.879 181.095 159.103C180.69 155.3 181.416 150.392 180.148 148.116L187.947 138.629L193.129 132.325L194.006 131.259C194.006 131.259 196.081 139.903 200.872 148.943Z" fill="#FEB19E"/>
<path d="M199.605 152.352C197.585 156.917 193.045 164.444 185.022 164.155C182.279 164.063 181.373 161.879 181.095 159.103C180.69 155.3 181.416 150.392 180.148 148.116L187.947 138.629L193.894 136.682C193.894 136.682 193.731 147.901 184.358 154.94C184.358 154.94 189.15 156.543 195.523 150.472C196.852 149.205 198.239 150.338 199.605 152.352Z" fill="#FF856A"/>
<path d="M197.669 142.103L198.521 144.093C198.521 144.093 195.819 154.617 186.418 157.742L187.307 167.776C187.307 167.776 201.129 161.444 203.653 147.709C203.653 147.709 200.914 141.92 197.669 142.103Z" fill="#23406D"/>
<path d="M182.676 157.291L181.529 167.641C181.529 167.641 173.281 162.035 176.019 150.471C176.019 150.471 179.147 152.288 181.484 151.878C181.484 151.878 180.326 153.919 182.676 157.291Z" fill="#23406D"/>
<path d="M163.119 127.231C165.586 137.14 168.499 146.656 177.178 151.12C179.415 152.269 182.097 152.208 184.264 150.946C188.476 148.491 194.883 142.867 194.01 131.618C194.01 131.618 196.893 132.605 197.358 127.231C197.822 121.858 195.867 120.927 193.759 121.365C191.651 121.803 191.845 128.986 191.845 128.986C191.845 128.986 184.416 127.478 182.763 118.102C182.763 118.102 179.629 122.297 176.931 123.365C174.232 124.434 175.277 119.664 175.277 119.664C175.277 119.664 173.333 126.491 163.119 127.231Z" fill="#FEB19E"/>
<path d="M165.883 215.986L143.307 217.499C141.484 217.622 139.903 216.324 139.773 214.603L137.26 181.138C137.13 179.416 138.502 177.922 140.325 177.799L162.9 176.286C164.723 176.163 166.305 177.461 166.433 179.182L168.947 212.647C169.078 214.368 167.705 215.863 165.883 215.986Z" fill="#BAC1CC"/>
<path d="M164.583 215.986L142.007 217.499C140.185 217.622 138.604 216.324 138.474 214.603L135.96 181.138C135.831 179.416 137.203 177.922 139.026 177.799L161.601 176.286C163.423 176.163 165.006 177.461 165.134 179.182L167.648 212.647C167.778 214.368 166.406 215.863 164.583 215.986Z" fill="#E1E7F4"/>
<path d="M153.835 196.844C154.011 199.18 152.778 201.167 151.084 201.28C149.39 201.394 147.874 199.591 147.698 197.255C147.523 194.918 148.755 192.932 150.449 192.818C152.143 192.704 153.659 194.507 153.835 196.844Z" fill="#F8FBFF"/>
<path d="M175.505 199.395C175.505 199.395 174.061 190.794 167.283 190.47V193.928C167.283 193.928 162.856 194.915 160.158 192.037C157.459 189.159 154.587 186.971 155.283 194.932C155.979 202.893 161.898 206.758 168.252 206.347L170.689 208.321L177.654 201.643L175.505 199.395Z" fill="#FEB19E"/>
<path d="M209.897 234.803C193.574 240.752 178.755 224.106 171.986 214.762C169.507 211.354 168.114 208.92 168.114 208.92L178.086 199.933L183.671 204.223L200.871 217.474C200.871 217.474 203.851 204.539 206.414 189.406C208.963 174.274 213.156 164.72 221.958 165.944C239.368 168.353 232.182 226.684 209.897 234.803Z" fill="url(#paint11_linear_8_2)"/>
<path d="M183.672 204.223C181.945 206.815 178.408 211.052 171.987 214.763C169.508 211.354 168.116 208.92 168.116 208.92L178.087 199.933L183.672 204.223Z" fill="#9EB2EF"/>
</g>
<defs>
<linearGradient id="paint0_linear_8_2" x1="103.44" y1="202.109" x2="106.344" y2="172.687" gradientUnits="userSpaceOnUse">
<stop stop-color="#3855E1"/>
<stop offset="1" stop-color="#5C7EF7"/>
</linearGradient>
<linearGradient id="paint1_linear_8_2" x1="128.3" y1="250.626" x2="107.461" y2="224.893" gradientUnits="userSpaceOnUse">
<stop stop-color="#3855E1"/>
<stop offset="1" stop-color="#5C7EF7"/>
</linearGradient>
<linearGradient id="paint2_linear_8_2" x1="278.033" y1="201.53" x2="275.128" y2="174.736" gradientUnits="userSpaceOnUse">
<stop stop-color="#3855E1"/>
<stop offset="1" stop-color="#5C7EF7"/>
</linearGradient>
<linearGradient id="paint3_linear_8_2" x1="253.538" y1="249.875" x2="272.5" y2="226.669" gradientUnits="userSpaceOnUse">
<stop stop-color="#3855E1"/>
<stop offset="1" stop-color="#5C7EF7"/>
</linearGradient>
<linearGradient id="paint4_linear_8_2" x1="118.892" y1="138.234" x2="136.756" y2="124.999" gradientUnits="userSpaceOnUse">
<stop stop-color="#3855E1"/>
<stop offset="1" stop-color="#5C7EF7"/>
</linearGradient>
<linearGradient id="paint5_linear_8_2" x1="261.682" y1="136.294" x2="243.92" y2="124.871" gradientUnits="userSpaceOnUse">
<stop stop-color="#3855E1"/>
<stop offset="1" stop-color="#5C7EF7"/>
</linearGradient>
<linearGradient id="paint6_linear_8_2" x1="170.482" y1="439.694" x2="163.05" y2="421.619" gradientUnits="userSpaceOnUse">
<stop stop-color="#3855E1"/>
<stop offset="1" stop-color="#5C7EF7"/>
</linearGradient>
<linearGradient id="paint7_linear_8_2" x1="211.002" y1="426.748" x2="239.57" y2="426.748" gradientUnits="userSpaceOnUse">
<stop stop-color="#3855E1"/>
<stop offset="1" stop-color="#5C7EF7"/>
</linearGradient>
<linearGradient id="paint8_linear_8_2" x1="148.785" y1="208.834" x2="134.769" y2="202.502" gradientUnits="userSpaceOnUse">
<stop stop-color="#3855E1"/>
<stop offset="1" stop-color="#5C7EF7"/>
</linearGradient>
<linearGradient id="paint9_linear_8_2" x1="197.271" y1="250.375" x2="188.976" y2="148.972" gradientUnits="userSpaceOnUse">
<stop stop-color="#3855E1"/>
<stop offset="1" stop-color="#5C7EF7"/>
</linearGradient>
<linearGradient id="paint10_linear_8_2" x1="176.885" y1="133.821" x2="170.838" y2="108.22" gradientUnits="userSpaceOnUse">
<stop stop-color="#1F3A65"/>
<stop offset="1" stop-color="#294A7A"/>
</linearGradient>
<linearGradient id="paint11_linear_8_2" x1="204.749" y1="249.763" x2="196.455" y2="148.361" gradientUnits="userSpaceOnUse">
<stop stop-color="#3855E1"/>
<stop offset="1" stop-color="#5C7EF7"/>
</linearGradient>
<clipPath id="clip0_8_2">
<rect width="393" height="446" fill="white"/>
</clipPath>
</defs>
</svg>
